<svg data-name="liquidity icon" xmlns="http://www.w3.org/2000/svg" width="72" height="72">
    <path data-name="Rectangle 2652" style="fill:none" d="M0 0h72v72H0z"/>
    <path data-name="Path 5997" d="M28 2Q4.015 22.475 4 37.4C4 52.34 15.4 62 28 62s24-9.66 24-24.6Q52 22.46 28 2zm.84 50.97a14.618 14.618 0 0 1-15.57-12.36 2.252 2.252 0 0 1 4.44-.75 10.164 10.164 0 0 0 10.92 8.61 2.252 2.252 0 1 1 .21 4.5z" transform="translate(8 4)" style="fill:#fea716"/>
    <path data-name="Path 5998" d="M24.842 26.72a2.269 2.269 0 0 1-2.16 2.25 14.618 14.618 0 0 1-15.57-12.36 2.252 2.252 0 0 1 4.44-.75 10.164 10.164 0 0 0 10.92 8.61 2.257 2.257 0 0 1 2.37 2.25z" transform="translate(14.158 28)" style="fill:#fff"/>
</svg>
