<svg id="stake_icon" data-name="stake icon" xmlns="http://www.w3.org/2000/svg" width="72" height="72">
    <defs>
        <style>
            .cls-2{fill:#fea716}
        </style>
    </defs>
    <path id="Rectangle_2653" data-name="Rectangle 2653" style="fill:none" d="M0 0h72v72H0z"/>
    <g id="Group_8115" data-name="Group 8115" transform="translate(2.145 2.199)">
        <g id="Group_8110" data-name="Group 8110" transform="translate(0 10.791)">
            <path id="Path_6002" data-name="Path 6002" class="cls-2" d="M4.162 4.33v15.6H2.635a1.922 1.922 0 0 1-1.92-1.92V6.25a1.922 1.922 0 0 1 1.92-1.92z" transform="translate(-.715 -4.33)"/>
            <path id="Path_6003" data-name="Path 6003" class="cls-2" d="M4.162 13.664v15.6H2.635a1.922 1.922 0 0 1-1.92-1.92v-11.76a1.92 1.92 0 0 1 1.92-1.92z" transform="translate(-.715 14.338)"/>
        </g>
        <g id="Group_8112" data-name="Group 8112" transform="translate(13.029 62.181)">
            <path id="Path_6005" data-name="Path 6005" class="cls-2" d="M20.661 22.267v.5a1.923 1.923 0 0 1-1.923 1.923H6.981a1.923 1.923 0 0 1-1.923-1.923v-.5z" transform="translate(-5.058 -19.846)"/>
            <path id="Path_6006" data-name="Path 6006" class="cls-2" d="M29.992 21.46v.5c0 1.062-.861 1.92-1.92 4.344h-11.76c-1.059-2.424-1.92-3.282-1.92-4.344v-.5z" transform="translate(13.61 -21.46)"/>
        </g>
        <g id="Group_8111" data-name="Group 8111" transform="translate(2.988)">
            <path id="Path_6004" data-name="Path 6004" d="M55.417 65.914H13.186A11.488 11.488 0 0 1 1.711 54.439V12.208A11.488 11.488 0 0 1 13.186.733h42.231a11.486 11.486 0 0 1 11.475 11.475v42.231a11.486 11.486 0 0 1-11.475 11.475zM13.186 6.733a5.48 5.48 0 0 0-5.475 5.475v42.231a5.48 5.48 0 0 0 5.475 5.475h42.231a5.479 5.479 0 0 0 5.475-5.475V12.208a5.479 5.479 0 0 0-5.475-5.475z" transform="translate(-1.711 -.733)" style="fill:#f8ba15"/>
        </g>
        <g id="Group_8114" data-name="Group 8114" transform="translate(13.128 13.548)">
            <g id="Group_8113" data-name="Group 8113">
                <path id="Path_6007" data-name="Path 6007" d="m41.5 22.874-4.26-.03a13.384 13.384 0 0 0-2.856-7l1.389-1.371a1.326 1.326 0 0 0 .393-.936 1.323 1.323 0 0 0-2.253-.951l-1.38 1.362a13.358 13.358 0 0 0-7.029-3.03l.03-4.146a1.515 1.515 0 0 0-3.03-.024l-.03 4.164a13.371 13.371 0 0 0-6.9 2.865l-1.239-1.254a1.3 1.3 0 0 0-.93-.393 1.322 1.322 0 0 0-.954 2.253l1.236 1.254a13.709 13.709 0 0 0-1.329 1.92 13.343 13.343 0 0 0-1.659 5l-4.077-.027a1.515 1.515 0 0 0-.024 3.03l4.08.027a13.392 13.392 0 0 0 2.922 7.034L12 34.193a1.325 1.325 0 1 0 1.86 1.887l1.6-1.584a13.323 13.323 0 0 0 6.816 2.937l-.03 4.509a1.515 1.515 0 0 0 3.03.021l.033-4.5a13.37 13.37 0 0 0 6.966-2.847l1.525 1.542a1.325 1.325 0 1 0 1.887-1.86l-1.512-1.53a13.226 13.226 0 0 0 1.368-1.962 13.37 13.37 0 0 0 1.657-4.935l4.275.03a1.514 1.514 0 0 0 .021-3.027zm-8.5 6.48a10.4 10.4 0 0 1-2.79 3.165 10.422 10.422 0 0 1-11.43.717 11.106 11.106 0 0 1-1.215-.81 10.273 10.273 0 0 1-1.875-1.875 10.438 10.438 0 0 1-.79-11.538 11.076 11.076 0 0 1 .855-1.272 10.408 10.408 0 0 1 13.368-2.607 9.994 9.994 0 0 1 1.308.885A10.4 10.4 0 0 1 33 29.354z" transform="translate(-5.091 -5.249)" style="fill:#fff"/>
            </g>
        </g>
        <path id="Path_6008" data-name="Path 6008" d="M21.506 19.23a6.611 6.611 0 0 1-1.86 2.076c-.081.054-.156.108-.24.162a6.861 6.861 0 0 1-1.137.6c-.1.039-.2.075-.3.111s-.2.069-.3.1-.207.06-.309.084a5.563 5.563 0 0 1-.63.123c-.1.018-.207.03-.315.042-.1.009-.213.015-.318.021s-.216.009-.321.009h-.006c-.075 0-.153 0-.231-.006l-.183-.009-.153-.009q-.252-.027-.5-.063l-.174-.033c-.066-.015-.135-.027-.2-.045s-.12-.027-.18-.042l-.234-.063a8.175 8.175 0 0 1-.408-.138c-.063-.024-.132-.048-.2-.075-.2-.084-.4-.18-.6-.279l-.195-.108a6.6 6.6 0 1 1 9-2.457z" transform="translate(16.21 16.524)" style="fill:#2bbede"/>
        <path id="Path_6009" data-name="Path 6009" d="M23.393 10.647v13.305a1.9 1.9 0 1 1-3.8 0V10.647a1.9 1.9 0 1 1 3.8 0z" transform="translate(37.039 15.291)" style="fill:#007acb"/>
    </g>
</svg>
