<svg id="arbitrum" xmlns="http://www.w3.org/2000/svg" width="16" height="16" viewBox="0 0 32 32">
    <defs>
        <style>
            .cls-1{fill:#96bedc}.cls-3{fill:#28a0f0}.cls-4{fill:#fff}
        </style>
    </defs>
    <circle id="Ellipse_53" data-name="Ellipse 53" class="cls-1" cx="16" cy="16" r="16"/>
    <g id="Logos_and_symbols" transform="translate(5.49 4.2)">
        <g id="SYMBOL_VER_1-1_1_">
            <g id="Symbol_-_Original_14_">
                <path id="Path_6145" data-name="Path 6145" d="m61.789 54.211 1.733-2.941 4.671 7.276v1.4l-.015-9.608a.724.724 0 0 0-.335-.576l-8.41-4.838a.741.741 0 0 0-.643 0 .692.692 0 0 0-.075.044l-.029.018-8.163 4.731-.032.014a.738.738 0 0 0-.121.07.726.726 0 0 0-.3.544l.013 7.83 4.351-6.744a3.19 3.19 0 0 1 2.849-1.167l1.3.034-7.661 12.288.9.52 7.754-12.8 3.427-.012-7.73 13.122L58.5 65.27l.385.221a.739.739 0 0 0 .519.01l8.528-4.942-1.632.941zm.661 9.524-3.255-5.109 1.987-3.372 4.275 6.738z" transform="translate(-48.62 -43.398)" style="fill:#2d374b"/>
                <path id="Path_6146" data-name="Path 6146" class="cls-3" d="m237.768 262.287 3.255 5.109 3.007-1.743-4.275-6.738z" transform="translate(-227.193 -247.06)"/>
                <path id="Path_6147" data-name="Path 6147" class="cls-3" d="M297.541 185.64v-1.4l-4.671-7.276-1.733 2.941 4.51 7.293 1.63-.945a.723.723 0 0 0 .267-.526z" transform="translate(-277.965 -169.096)"/>
                <path id="Path_6148" data-name="Path 6148" class="cls-4" d="m20.219 167.242 2.3 1.327 7.662-12.288-1.3-.034a3.19 3.19 0 0 0-2.849 1.167l-4.351 6.744-1.464 2.249z" transform="translate(-20.219 -149.381)"/>
                <path id="Path_6149" data-name="Path 6149" class="cls-4" d="m97.351 156.964-3.427.012-7.754 12.8 2.71 1.56.737-1.25z" transform="translate(-82.964 -150.064)"/>
                <path id="Path_6150" data-name="Path 6150" class="cls-1" d="M41.238 21.9a2.183 2.183 0 0 0-1.025-1.755l-8.521-4.9a2.217 2.217 0 0 0-1.955 0c-.071.036-8.286 4.8-8.286 4.8a2.181 2.181 0 0 0-1.234 1.851v10.146l1.464-2.249-.013-7.83a.7.7 0 0 1 .01-.085.721.721 0 0 1 .291-.46c.039-.028 8.394-4.864 8.42-4.877a.741.741 0 0 1 .643 0l8.41 4.838a.724.724 0 0 1 .335.576v9.7a.707.707 0 0 1-.251.526l-1.631.945-.841.488-3.007 1.743L31 37.12a.739.739 0 0 1-.519-.01l-3.608-2.075-.737 1.25 3.242 1.867.281.159c.121.068.2.114.233.128a2.106 2.106 0 0 0 .861.177 2.168 2.168 0 0 0 .794-.149l8.858-5.13a2.166 2.166 0 0 0 .834-1.631V21.9z" transform="translate(-20.218 -15.017)"/>
            </g>
        </g>
    </g>
</svg>
