<svg xmlns="http://www.w3.org/2000/svg" width="16" height="16" viewBox="0 0 16 16">
    <circle cx="8" cy="8" r="8" fill="#8247e5"/>
    <g>
        <path fill="#fff" d="M7.037 2.4a.618.618 0 0 0-.582 0L5.1 3.2l-.922.51-1.335.8a.618.618 0 0 1-.582 0l-1.048-.631a.591.591 0 0 1-.291-.51V2.157a.6.6 0 0 1 .291-.51l1.044-.607a.618.618 0 0 1 .582 0l1.043.631a.591.591 0 0 1 .291.51v.8l.927-.533v-.825a.6.6 0 0 0-.291-.51L2.863-.027a.618.618 0 0 0-.582 0L.291 1.138A.534.534 0 0 0 0 1.623V3.9a.6.6 0 0 0 .291.51l1.965 1.14a.618.618 0 0 0 .582 0l1.335-.776.927-.531 1.33-.776a.618.618 0 0 1 .582 0l1.043.607a.591.591 0 0 1 .291.51V5.8a.6.6 0 0 1-.291.51l-1.019.607a.618.618 0 0 1-.582 0l-1.043-.611A.591.591 0 0 1 5.12 5.8v-.78l-.92.534v.8a.6.6 0 0 0 .291.51L6.454 8a.618.618 0 0 0 .582 0L9 6.864a.591.591 0 0 0 .291-.51V4.049A.6.6 0 0 0 9 3.54z" transform="translate(3.154 3.895) translate(0 .1)"/>
    </g>
</svg>
