<svg xmlns="http://www.w3.org/2000/svg" width="64" height="64" viewBox="0 0 64 64">
    <circle cx="32" cy="32" r="32" fill="#8247e5"/>
    <g>
        <path fill="#fff" d="M29 10.2a2.548 2.548 0 0 0-2.4 0L21 13.5l-3.8 2.1-5.5 3.3a2.548 2.548 0 0 1-2.4 0L5 16.3a2.437 2.437 0 0 1-1.2-2.1v-5A2.467 2.467 0 0 1 5 7.1l4.3-2.5a2.548 2.548 0 0 1 2.4 0L16 7.2a2.437 2.437 0 0 1 1.2 2.1v3.3l3.8-2.2V7a2.467 2.467 0 0 0-1.2-2.1l-8-4.7a2.548 2.548 0 0 0-2.4 0L1.2 5A2.2 2.2 0 0 0 0 7v9.4a2.467 2.467 0 0 0 1.2 2.1l8.1 4.7a2.548 2.548 0 0 0 2.4 0l5.5-3.2 3.8-2.2 5.5-3.2a2.548 2.548 0 0 1 2.4 0l4.3 2.5a2.437 2.437 0 0 1 1.2 2.1v5a2.467 2.467 0 0 1-1.2 2.1L29 28.8a2.548 2.548 0 0 1-2.4 0l-4.3-2.5a2.437 2.437 0 0 1-1.2-2.1V21l-3.8 2.2v3.3a2.467 2.467 0 0 0 1.2 2.1l8.1 4.7a2.548 2.548 0 0 0 2.4 0l8.1-4.7a2.437 2.437 0 0 0 1.2-2.1V17a2.467 2.467 0 0 0-1.2-2.1z" transform="translate(13 15.1)"/>
    </g>
</svg>