<svg xmlns="http://www.w3.org/2000/svg" xmlns:xlink="http://www.w3.org/1999/xlink" width="64" height="64" viewBox="0 0 64 64">
  <defs>
    <style>
      .cls-1 {
        fill: #fff;
      }

      .cls-2 {
        fill: url(#linear-gradient);
      }

      .cls-3 {
        fill: url(#linear-gradient-2);
      }

      .cls-4 {
        fill: url(#linear-gradient-3);
      }

      .cls-5 {
        fill: #264fa1;
      }
    </style>
    <linearGradient id="linear-gradient" x1="0.5" y1="0.963" x2="0.5" y2="0.068" gradientUnits="objectBoundingBox">
      <stop offset="0" stop-color="#007acb"/>
      <stop offset="0.475" stop-color="#2bbede"/>
      <stop offset="1" stop-color="#2bdec1"/>
    </linearGradient>
    <linearGradient id="linear-gradient-2" x1="0.5" y1="0.113" x2="0.5" y2="0.922" gradientUnits="objectBoundingBox">
      <stop offset="0.1" stop-color="#264fa1"/>
      <stop offset="0.484" stop-color="#288ec3"/>
      <stop offset="0.8" stop-color="#2bbede"/>
    </linearGradient>
    <linearGradient id="linear-gradient-3" x1="0.5" y1="0.946" x2="0.5" y2="0.188" xlink:href="#linear-gradient-2"/>
  </defs>
  <g id="cvol_light_bg" data-name="cvol light bg" transform="translate(182.771)">
    <circle id="Ellipse_311" data-name="Ellipse 311" class="cls-1" cx="32" cy="32" r="32" transform="translate(-182.771)"/>
    <g id="Group_8167" data-name="Group 8167">
      <path id="Path_5944" data-name="Path 5944" class="cls-2" d="M-148.406,65.411a4.231,4.231,0,0,1-4.006-2.73l-18.708-33.726a2.083,2.083,0,0,1,.285-2.094,2.165,2.165,0,0,1,1.717-.826h4.7a2.171,2.171,0,0,1,2.027,1.373L-148.257,51.1l13.54-23.739a2.156,2.156,0,0,1,2.009-1.326h4.292a2.165,2.165,0,0,1,1.718.826,2.067,2.067,0,0,1,.3,2.052l-18.018,33.8A4.217,4.217,0,0,1-148.406,65.411Z" transform="translate(-2.115 -7.559)"/>
      <g id="Group_8314" data-name="Group 8314" transform="translate(-160.771 5)">
        <g id="Group_6110" data-name="Group 6110">
          <path id="Path_4038" data-name="Path 4038" class="cls-3" d="M466.595,415.41a1.481,1.481,0,0,1-1.479-1.476V410.9l9.337-6.108-9.27-6.04v-4.721a.606.606,0,0,1,.605-.6.588.588,0,0,1,.333.1l14.9,10.037a1.473,1.473,0,0,1,0,2.444l-13.611,9.141a1.441,1.441,0,0,1-.815.254Z" transform="translate(-460.823 -393.43)"/>
          <path id="Path_4039" data-name="Path 4039" class="cls-4" d="M429.669,443a1.441,1.441,0,0,1-.817-.255l-13.544-9.123a1.473,1.473,0,0,1,0-2.444l14.967-10.052a.587.587,0,0,1,.332-.1.606.606,0,0,1,.605.6v4.666l-9.337,6.107,9.27,6.04v3.084a1.45,1.45,0,0,1-.449,1.061,1.509,1.509,0,0,1-1.03.415Z" transform="translate(-414.658 -418.676)"/>
        </g>
        <g id="Group_6111" data-name="Group 6111" transform="translate(4.347 4.751)">
          <path id="Path_4040" data-name="Path 4040" class="cls-5" d="M470.019,565.5l4.324,2.817-4.293,2.882-4.309-2.9Z" transform="translate(-465.742 -555.609)"/>
          <path id="Path_4041" data-name="Path 4041" class="cls-5" d="M511.86,454.967l-4.324-2.817,4.293-2.882,4.309,2.9Z" transform="translate(-503.98 -449.268)"/>
        </g>
      </g>
    </g>
  </g>
</svg>
