<svg xmlns="http://www.w3.org/2000/svg" id="hegic_icon" width="64" height="64" viewBox="0 0 64 64">
    <defs>
        <style>
            .cls-2{fill:#9ef9ff}.cls-3{fill:#5dd6de}
        </style>
    </defs>
    <path id="Path_4904" fill="#2b3561" d="M32 0A32 32 0 1 1 0 32 32 32 0 0 1 32 0z"/>
    <g id="Group_6627" transform="translate(832 347)">
        <g id="Group_6624">
            <g id="Group_6619">
                <g id="Group_6616">
                    <path id="Rectangle_2474" d="M0 0H7.607V29.892H0z" class="cls-2" transform="translate(-814.161 -328.768)"/>
                    <path id="Path_4890" d="M-806.553-298.644h-7.608a.232.232 0 0 1-.232-.232v-29.892a.232.232 0 0 1 .232-.232h7.608a.232.232 0 0 1 .232.232v29.892a.232.232 0 0 1-.232.232zm-7.376-.464h7.144v-29.428h-7.144z" class="cls-3"/>
                </g>
                <g id="Group_6617">
                    <path id="Path_4891" d="M-806.553-298.876l2.439-2.357v-29.892l-2.439 2.357z" class="cls-2"/>
                    <path id="Path_4892" d="M-806.553-298.644a.238.238 0 0 1-.091-.018.232.232 0 0 1-.141-.214v-29.892a.23.23 0 0 1 .071-.167l2.439-2.356a.232.232 0 0 1 .252-.047.232.232 0 0 1 .141.214v29.892a.23.23 0 0 1-.071.167l-2.439 2.356a.229.229 0 0 1-.161.065zm.232-30.025v29.247l1.975-1.909v-29.247z" class="cls-3"/>
                </g>
                <g id="Group_6618">
                    <path id="Path_4893" d="M-804.114-331.125h-7.607l-2.439 2.357h7.607z" class="cls-2"/>
                    <path id="Path_4894" d="M-806.553-328.536h-7.608a.232.232 0 0 1-.215-.145.233.233 0 0 1 .054-.254l2.44-2.356a.23.23 0 0 1 .161-.065h7.607a.23.23 0 0 1 .215.145.23.23 0 0 1-.054.253l-2.439 2.357a.23.23 0 0 1-.161.065zm-7.033-.464h6.939l1.959-1.892h-6.939z" class="cls-3"/>
                </g>
            </g>
            <g id="Group_6623">
                <g id="Group_6620">
                    <path id="Rectangle_2475" d="M0 0H7.607V29.892H0z" class="cls-2" transform="translate(-795.886 -328.768)"/>
                    <path id="Path_4895" d="M-788.279-298.644h-7.607a.231.231 0 0 1-.232-.232v-29.892a.232.232 0 0 1 .232-.232h7.607a.232.232 0 0 1 .232.232v29.892a.232.232 0 0 1-.232.232zm-7.375-.464h7.143v-29.428h-7.143z" class="cls-3"/>
                </g>
                <g id="Group_6621">
                    <path id="Path_4896" d="M-788.279-298.876l2.439-2.357v-29.892l-2.439 2.357z" class="cls-2"/>
                    <path id="Path_4897" d="M-788.279-298.644a.242.242 0 0 1-.091-.018.232.232 0 0 1-.141-.214v-29.892a.234.234 0 0 1 .071-.167l2.44-2.356a.231.231 0 0 1 .251-.047.231.231 0 0 1 .142.214v29.892a.234.234 0 0 1-.071.167l-2.44 2.356a.229.229 0 0 1-.161.065zm.232-30.025v29.247l1.976-1.909v-29.247z" class="cls-3"/>
                </g>
                <g id="Group_6622">
                    <path id="Path_4898" d="M-785.839-331.125h-7.607l-2.439 2.357h7.607z" class="cls-2"/>
                    <path id="Path_4899" d="M-788.279-328.536h-7.607a.23.23 0 0 1-.215-.145.23.23 0 0 1 .054-.254l2.439-2.356a.23.23 0 0 1 .161-.065h7.608a.232.232 0 0 1 .215.145.231.231 0 0 1-.054.253l-2.44 2.357a.23.23 0 0 1-.161.065zm-7.033-.464h6.939l1.959-1.892h-6.939z" class="cls-3"/>
                </g>
            </g>
        </g>
        <g id="Group_6625">
            <path id="Rectangle_2476" d="M0 0H10.646V3.845H0z" class="cls-2" transform="translate(-806.574 -316.116)"/>
            <path id="Path_4900" d="M-795.928-312.039h-10.646a.232.232 0 0 1-.232-.232v-3.845a.232.232 0 0 1 .232-.232h10.646a.231.231 0 0 1 .232.232v3.845a.232.232 0 0 1-.232.232zm-10.414-.464h10.182v-3.381h-10.182z" class="cls-3"/>
        </g>
        <g id="Group_6626">
            <path id="Path_4901" d="M-795.928-317.522h-8.186l-2.46 1.406h10.646z" class="cls-2"/>
            <path id="Path_4902" d="M-795.928-315.884h-10.646a.232.232 0 0 1-.224-.173.232.232 0 0 1 .109-.261l2.46-1.4a.223.223 0 0 1 .115-.031h8.186a.232.232 0 0 1 .232.232v1.406a.232.232 0 0 1-.232.227zm-9.772-.464h9.54v-.942h-7.892z" class="cls-3"/>
        </g>
    </g>
</svg>
