<svg xmlns="http://www.w3.org/2000/svg" xmlns:xlink="http://www.w3.org/1999/xlink" id="cusdt_coin_selected" width="64" height="64" viewBox="0 0 64 64">
    <defs>
        <linearGradient id="linear-gradient" x1=".5" x2=".5" y1="1" gradientUnits="objectBoundingBox">
            <stop offset=".1" stop-color="#26519f"/>
            <stop offset=".484" stop-color="#298dc3"/>
            <stop offset=".8" stop-color="#28bcdd"/>
        </linearGradient>
        <linearGradient id="linear-gradient-2" x1="-4.01" x2="-4.01" y1="3.873" y2="3.845" gradientUnits="objectBoundingBox">
            <stop offset="0" stop-color="#fff"/>
            <stop offset="1" stop-color="#fff" stop-opacity=".502"/>
        </linearGradient>
        <linearGradient id="linear-gradient-3" x1="-3.762" x2="-3.762" y1="3.735" y2="3.761" xlink:href="#linear-gradient-2"/>
        <style>
            .cls-2{fill:#fff}
        </style>
    </defs>
    <g id="Group_6459" transform="translate(-1296 -456)">
        <g id="Group_6446" transform="translate(456 -112)">
            <circle id="Ellipse_52" cx="32" cy="32" r="32" fill="#50af95" transform="translate(840 568)"/>
            <path id="Path_3812" d="M696.7 599.222h13.67c.272 0 .248-.024.248.256v6.41c0 .125-.01.133-.133.139h-9.859c-.245 0-.245 0-.245.24v4.107c.005.133.008.136.144.147.488.029.976.051 1.461.088.749.059 1.5.115 2.248.2 1.085.125 2.173.253 3.253.421a25.953 25.953 0 0 1 4.723 1.144 7.288 7.288 0 0 1 1.853.9 3.486 3.486 0 0 1 .547.483 1.073 1.073 0 0 1-.021 1.544 3.936 3.936 0 0 1-1.1.8 13.034 13.034 0 0 1-2.493.941 31.729 31.729 0 0 1-3.725.795c-.755.117-1.509.213-2.267.3-.643.077-1.291.141-1.936.2-.472.043-.944.067-1.419.1-.373.024-.749.04-1.125.061-.128.008-.141.024-.147.149V632.594c0 .267.016.248-.245.248h-6.984c-.125-.005-.133-.013-.139-.136v-13.934c0-.267 0-.261-.267-.277-.619-.035-1.238-.069-1.856-.115-.517-.035-1.032-.077-1.547-.125-.371-.032-.739-.075-1.107-.12-.557-.072-1.115-.136-1.669-.227-.891-.149-1.781-.309-2.667-.485a18.74 18.74 0 0 1-2.379-.635 9.549 9.549 0 0 1-2.072-.925 2.879 2.879 0 0 1-.784-.7 1.013 1.013 0 0 1-.053-1.219 2.251 2.251 0 0 1 .672-.664 7.409 7.409 0 0 1 1.691-.84 23.7 23.7 0 0 1 4.152-1.077c.7-.125 1.406-.24 2.112-.339.619-.088 1.24-.152 1.861-.219s1.216-.117 1.824-.168c.349-.029.7-.043 1.051-.067.309-.019.616-.037.923-.053.08-.005.117-.037.115-.115v-4.236c-.008-.117-.021-.133-.141-.139h-9.859c-.253 0-.237.013-.237-.24v-6.323c0-.267-.016-.243.251-.243H696.7zm3.68 11.827v4.851c0 .093-.032.128-.128.133-.493.024-.984.061-1.477.077-.536.021-1.075.027-1.614.029-.384 0-.771-.011-1.157-.019-.493-.008-.987-.016-1.48-.032-.464-.013-.925-.04-1.389-.059-.088 0-.128-.035-.123-.123v-4.621-.13c-.005-.123-.024-.136-.139-.128-.264.016-.528.027-.789.043-.371.021-.744.035-1.112.067-.715.059-1.429.123-2.144.2-.608.064-1.216.125-1.819.219-.872.136-1.744.288-2.611.461a13.481 13.481 0 0 0-2.965.909 3.149 3.149 0 0 0-1.011.664.8.8 0 0 0-.261.632.967.967 0 0 0 .379.64 3.528 3.528 0 0 0 .867.541 11.42 11.42 0 0 0 1.925.667 29.229 29.229 0 0 0 3.653.7c.677.091 1.355.181 2.035.253s1.349.128 2.027.176c.7.048 1.395.085 2.091.117.621.029 1.24.053 1.861.059 1.632.005 3.264.037 4.9-.051.557-.029 1.112-.053 1.669-.088s1.1-.069 1.651-.117c.688-.061 1.381-.12 2.067-.208.877-.112 1.752-.237 2.624-.384a20.014 20.014 0 0 0 3.2-.789 6.811 6.811 0 0 0 1.333-.6 1.94 1.94 0 0 0 .605-.525.71.71 0 0 0 0-.885 1.748 1.748 0 0 0-.443-.421 6.283 6.283 0 0 0-1.659-.765 22.741 22.741 0 0 0-3.336-.792c-1.227-.208-2.461-.373-3.7-.475-.749-.061-1.5-.117-2.248-.176-.224-.016-.448-.037-.672-.048-.196-.01-.39-.002-.612-.002z" class="cls-2" transform="translate(175.316 -16.031)"/>
        </g>
        <g id="Group_6443" transform="translate(536 -112)">
            <circle id="Ellipse_150" cx="16" cy="16" r="16" fill="url(#linear-gradient)" transform="translate(760 568)"/>
            <g id="Group_6112" transform="translate(768.25 574.964)">
                <g id="Group_6110">
                    <path id="Path_4038" fill="url(#linear-gradient-2)" d="M375.848 267.857a1.1 1.1 0 0 1-1.1-1.1V264.5l6.945-4.543-6.9-4.495v-3.512a.453.453 0 0 1 .453-.449.437.437 0 0 1 .248.078l11.085 7.466a1.1 1.1 0 0 1 0 1.818l-10.124 6.8a1.071 1.071 0 0 1-.606.189z" transform="translate(-371.553 -251.505)"/>
                    <path id="Path_4039" fill="url(#linear-gradient-3)" d="M298.065 315.889a1.072 1.072 0 0 1-.608-.19l-10.075-6.786a1.1 1.1 0 0 1 0-1.818l11.134-7.476a.437.437 0 0 1 .247-.078.453.453 0 0 1 .453.449v3.471L292.271 308l6.9 4.493v2.294a1.076 1.076 0 0 1-.334.79 1.123 1.123 0 0 1-.766.309z" transform="translate(-286.898 -297.794)"/>
                </g>
                <g id="Group_6111" transform="translate(3.234 3.534)">
                    <path id="Path_4040" d="M379.019 551.029l3.217 2.1-3.193 2.144-3.2-2.157z" class="cls-2" transform="translate(-375.838 -543.671)"/>
                    <path id="Path_4041" d="M451.795 352.922l-3.217-2.1 3.193-2.144 3.205 2.157z" class="cls-2" transform="translate(-445.933 -348.683)"/>
                </g>
            </g>
        </g>
    </g>
    <path id="Path_4852" fill="#f8ba15" d="M756.762 781.881A27.975 27.975 0 1 1 730 801.619l.445-1.444-.621-1.378a11.98 11.98 0 0 1 15.852-15.852l1.378.621 1.444-.445a28 28 0 0 1 8.262-1.24m0-4a31.992 31.992 0 0 0-9.44 1.417 15.981 15.981 0 0 0-21.143 21.143 32 32 0 1 0 30.583-22.56z" transform="translate(-724.762 -777.881)"/>
</svg>
