<svg xmlns="http://www.w3.org/2000/svg" width="64" height="64.001" viewBox="0 0 64 64.001">
    <g>
        <circle cx="32" cy="32" r="32" fill="#50af95"/>
        <path fill="#fff" d="M696.7 599.222h13.67c.272 0 .248-.024.248.256v6.41c0 .125-.01.133-.133.139h-9.859c-.245 0-.245 0-.245.24v4.107c.005.133.008.136.144.147.488.029.976.051 1.461.088.749.059 1.5.115 2.248.2 1.085.125 2.173.253 3.253.421a25.953 25.953 0 0 1 4.723 1.144 7.288 7.288 0 0 1 1.853.9 3.486 3.486 0 0 1 .547.483 1.073 1.073 0 0 1-.021 1.544 3.936 3.936 0 0 1-1.1.8 13.034 13.034 0 0 1-2.493.941 31.729 31.729 0 0 1-3.725.795c-.755.117-1.509.213-2.267.3-.643.077-1.291.141-1.936.2-.472.043-.944.067-1.419.1-.373.024-.749.04-1.125.061-.128.008-.141.024-.147.149V632.594c0 .267.016.248-.245.248h-6.984c-.125-.005-.133-.013-.139-.136v-13.934c0-.267 0-.261-.267-.277-.619-.035-1.238-.069-1.856-.115-.517-.035-1.032-.077-1.547-.125-.371-.032-.739-.075-1.107-.12-.557-.072-1.115-.136-1.669-.227-.891-.149-1.781-.309-2.667-.485a18.74 18.74 0 0 1-2.379-.635 9.549 9.549 0 0 1-2.072-.925 2.879 2.879 0 0 1-.784-.7 1.013 1.013 0 0 1-.053-1.219 2.251 2.251 0 0 1 .672-.664 7.409 7.409 0 0 1 1.691-.84 23.7 23.7 0 0 1 4.152-1.077c.7-.125 1.406-.24 2.112-.339.619-.088 1.24-.152 1.861-.219s1.216-.117 1.824-.168c.349-.029.7-.043 1.051-.067.309-.019.616-.037.923-.053.08-.005.117-.037.115-.115v-4.236c-.008-.117-.021-.133-.141-.139h-9.859c-.253 0-.237.013-.237-.24v-6.323c0-.267-.016-.243.251-.243H696.7zm3.68 11.827v4.851c0 .093-.032.128-.128.133-.493.024-.984.061-1.477.077-.536.021-1.075.027-1.614.029-.384 0-.771-.011-1.157-.019-.493-.008-.987-.016-1.48-.032-.464-.013-.925-.04-1.389-.059-.088 0-.128-.035-.123-.123v-4.621-.13c-.005-.123-.024-.136-.139-.128-.264.016-.528.027-.789.043-.371.021-.744.035-1.112.067-.715.059-1.429.123-2.144.2-.608.064-1.216.125-1.819.219-.872.136-1.744.288-2.611.461a13.481 13.481 0 0 0-2.965.909 3.149 3.149 0 0 0-1.011.664.8.8 0 0 0-.261.632.967.967 0 0 0 .379.64 3.528 3.528 0 0 0 .867.541 11.42 11.42 0 0 0 1.925.667 29.229 29.229 0 0 0 3.653.7c.677.091 1.355.181 2.035.253s1.349.128 2.027.176c.7.048 1.395.085 2.091.117.621.029 1.24.053 1.861.059 1.632.005 3.264.037 4.9-.051.557-.029 1.112-.053 1.669-.088s1.1-.069 1.651-.117c.688-.061 1.381-.12 2.067-.208.877-.112 1.752-.237 2.624-.384a20.014 20.014 0 0 0 3.2-.789 6.811 6.811 0 0 0 1.333-.6 1.94 1.94 0 0 0 .605-.525.71.71 0 0 0 0-.885 1.748 1.748 0 0 0-.443-.421 6.283 6.283 0 0 0-1.659-.765 22.741 22.741 0 0 0-3.336-.792c-1.227-.208-2.461-.373-3.7-.475-.749-.061-1.5-.117-2.248-.176-.224-.016-.448-.037-.672-.048-.196-.01-.39-.002-.612-.002z" transform="translate(-664.684 -584.032)"/>
    </g>
    <path fill="#f8ba15" d="M717.768 788.751a32 32 0 1 1 32-32 32.036 32.036 0 0 1-32 32zm0-60a28 28 0 1 0 28 28 28.031 28.031 0 0 0-28-28z" transform="translate(-685.768 -724.75)"/>
</svg>
