<svg xmlns="http://www.w3.org/2000/svg" id="usdc_coin" width="64" height="64" viewBox="0 0 64 64">
    <defs>
        <style>
            .cls-2{fill:#fff}
        </style>
    </defs>
    <path id="Path_3813" fill="#2775ca" d="M32 64A32 32 0 1 0 0 32a31.923 31.923 0 0 0 32 32z"/>
    <path id="Path_3814" d="M734.537 529.13c0-4.667-2.8-6.267-8.4-6.933-4-.533-4.8-1.6-4.8-3.467s1.333-3.066 4-3.066c2.4 0 3.733.8 4.4 2.8a1 1 0 0 0 .933.667h2.13a.911.911 0 0 0 .933-.933v-.133a6.661 6.661 0 0 0-6-5.466v-3.2c0-.533-.4-.933-1.067-1.067h-2c-.533 0-.933.4-1.067 1.067v3.067c-4 .533-6.533 3.2-6.533 6.533 0 4.4 2.667 6.133 8.267 6.8 3.733.667 4.933 1.467 4.933 3.6s-1.867 3.6-4.4 3.6c-3.467 0-4.667-1.467-5.067-3.467a.974.974 0 0 0-.933-.8H717.6a.911.911 0 0 0-.933.934v.133c.533 3.333 2.667 5.733 7.067 6.4v3.2c0 .533.4.933 1.067 1.067h2c.533 0 .933-.4 1.067-1.067v-3.2c4.002-.669 6.669-3.469 6.669-7.069z" class="cls-2" transform="translate(-693.736 -492.064)"/>
    <path id="Path_3815" d="M265.231 333.4a19.952 19.952 0 0 1 0-37.467 1.338 1.338 0 0 0 .8-1.333v-1.867a1.014 1.014 0 0 0-.8-1.067.8.8 0 0 0-.533.133 23.994 23.994 0 0 0 0 45.733.811.811 0 0 0 1.2-.533c.133-.133.133-.267.133-.533V334.6a1.776 1.776 0 0 0-.8-1.2zm14.133-41.6a.811.811 0 0 0-1.2.533c-.133.133-.133.266-.133.533v1.867a1.769 1.769 0 0 0 .8 1.333 19.952 19.952 0 0 1 0 37.467 1.338 1.338 0 0 0-.8 1.333v1.867a1.014 1.014 0 0 0 .8 1.067.8.8 0 0 0 .533-.133 24.1 24.1 0 0 0 0-45.867z" class="cls-2" transform="translate(-240.031 -282.336)"/>
</svg>
