<svg xmlns="http://www.w3.org/2000/svg" width="232" height="64">
    <defs>
        <style>
            .cls-2{fill:#fff}
        </style>
    </defs>
    <g id="usdt2usdc" transform="translate(-844 -568)">
        <g id="usdc_coin" data-name="usdc coin" transform="translate(1012 568)">
            <path id="Path_3813" data-name="Path 3813" d="M32 64A32 32 0 1 0 0 32a31.923 31.923 0 0 0 32 32z" style="fill:#2775ca"/>
            <path id="Path_3814" data-name="Path 3814" class="cls-2" d="M734.537 529.13c0-4.667-2.8-6.267-8.4-6.933-4-.533-4.8-1.6-4.8-3.467s1.333-3.066 4-3.066c2.4 0 3.733.8 4.4 2.8a1 1 0 0 0 .933.667h2.13a.911.911 0 0 0 .933-.933v-.133a6.661 6.661 0 0 0-6-5.466v-3.2c0-.533-.4-.933-1.067-1.067h-2c-.533 0-.933.4-1.067 1.067v3.067c-4 .533-6.533 3.2-6.533 6.533 0 4.4 2.667 6.133 8.267 6.8 3.733.667 4.933 1.467 4.933 3.6s-1.867 3.6-4.4 3.6c-3.467 0-4.667-1.467-5.067-3.467a.974.974 0 0 0-.933-.8H717.6a.911.911 0 0 0-.933.934v.133c.533 3.333 2.667 5.733 7.067 6.4v3.2c0 .533.4.933 1.067 1.067h2c.533 0 .933-.4 1.067-1.067v-3.2c4.002-.669 6.669-3.469 6.669-7.069z" transform="translate(-693.736 -492.064)"/>
            <path id="Path_3815" data-name="Path 3815" class="cls-2" d="M265.231 333.4a19.952 19.952 0 0 1 0-37.467 1.338 1.338 0 0 0 .8-1.333v-1.867a1.014 1.014 0 0 0-.8-1.067.8.8 0 0 0-.533.133 23.994 23.994 0 0 0 0 45.733.811.811 0 0 0 1.2-.533c.133-.133.133-.267.133-.533V334.6a1.776 1.776 0 0 0-.8-1.2zm14.133-41.6a.811.811 0 0 0-1.2.533c-.133.133-.133.266-.133.533v1.867a1.769 1.769 0 0 0 .8 1.333 19.952 19.952 0 0 1 0 37.467 1.338 1.338 0 0 0-.8 1.333v1.867a1.014 1.014 0 0 0 .8 1.067.8.8 0 0 0 .533-.133 24.1 24.1 0 0 0 0-45.867z" transform="translate(-240.031 -282.336)"/>
        </g>
        <g id="usdt_coin" data-name="usdt coin" transform="translate(844 568)">
            <circle id="Ellipse_52" data-name="Ellipse 52" cx="32" cy="32" r="32" style="fill:#50af95"/>
            <path id="Path_3812" data-name="Path 3812" class="cls-2" d="M696.7 599.222h13.67c.272 0 .248-.024.248.256v6.41c0 .125-.01.133-.133.139h-9.859c-.245 0-.245 0-.245.24v4.107c.005.133.008.136.144.147.488.029.976.051 1.461.088.749.059 1.5.115 2.248.2 1.085.125 2.173.253 3.253.421a25.953 25.953 0 0 1 4.723 1.144 7.288 7.288 0 0 1 1.853.9 3.486 3.486 0 0 1 .547.483 1.073 1.073 0 0 1-.021 1.544 3.936 3.936 0 0 1-1.1.8 13.034 13.034 0 0 1-2.493.941 31.729 31.729 0 0 1-3.725.795 57.85 57.85 0 0 1-2.267.3c-.643.077-1.291.141-1.936.2-.472.043-.944.067-1.419.1-.373.024-.749.04-1.125.061-.128.008-.141.024-.147.149V632.594c0 .267.016.248-.245.248h-6.984c-.125-.005-.133-.013-.139-.136v-13.934c0-.267 0-.261-.267-.277-.619-.035-1.238-.069-1.856-.115a61.208 61.208 0 0 1-1.547-.125 31.2 31.2 0 0 1-1.107-.12c-.557-.072-1.115-.136-1.669-.227a89.206 89.206 0 0 1-2.667-.485 18.74 18.74 0 0 1-2.379-.635 9.549 9.549 0 0 1-2.072-.925 2.879 2.879 0 0 1-.784-.7 1.013 1.013 0 0 1-.053-1.219 2.251 2.251 0 0 1 .672-.664 7.409 7.409 0 0 1 1.691-.84 23.7 23.7 0 0 1 4.152-1.077c.7-.125 1.406-.24 2.112-.339.619-.088 1.24-.152 1.861-.219s1.216-.117 1.824-.168c.349-.029.7-.043 1.051-.067.309-.019.616-.037.923-.053.08-.005.117-.037.115-.115v-4.236c-.008-.117-.021-.133-.141-.139h-9.859c-.253 0-.237.013-.237-.24v-6.323c0-.267-.016-.243.251-.243H696.7zm3.68 11.827v4.851c0 .093-.032.128-.128.133-.493.024-.984.061-1.477.077-.536.021-1.075.027-1.614.029-.384 0-.771-.011-1.157-.019-.493-.008-.987-.016-1.48-.032-.464-.013-.925-.04-1.389-.059-.088 0-.128-.035-.123-.123v-4.751c-.005-.123-.024-.136-.139-.128-.264.016-.528.027-.789.043-.371.021-.744.035-1.112.067-.715.059-1.429.123-2.144.2-.608.064-1.216.125-1.819.219a62.82 62.82 0 0 0-2.611.461 13.481 13.481 0 0 0-2.965.909 3.149 3.149 0 0 0-1.011.664.8.8 0 0 0-.261.632.967.967 0 0 0 .379.64 3.528 3.528 0 0 0 .867.541 11.42 11.42 0 0 0 1.925.667 29.229 29.229 0 0 0 3.653.7c.677.091 1.355.181 2.035.253s1.349.128 2.027.176c.7.048 1.395.085 2.091.117.621.029 1.24.053 1.861.059 1.632.005 3.264.037 4.9-.051.557-.029 1.112-.053 1.669-.088s1.1-.069 1.651-.117c.688-.061 1.381-.12 2.067-.208a66.313 66.313 0 0 0 2.624-.384 20.014 20.014 0 0 0 3.2-.789 6.811 6.811 0 0 0 1.333-.6 1.94 1.94 0 0 0 .605-.525.71.71 0 0 0 0-.885 1.748 1.748 0 0 0-.443-.421 6.283 6.283 0 0 0-1.659-.765 22.741 22.741 0 0 0-3.336-.792 43.507 43.507 0 0 0-3.7-.475c-.749-.061-1.5-.117-2.248-.176-.224-.016-.448-.037-.672-.048-.196-.01-.39-.002-.612-.002z" transform="translate(-664.684 -584.032)"/>
        </g>
        <path id="Path_6085" data-name="Path 6085" d="m500.82 499.8-4.6-4.6a.99.99 0 0 0-1.4 1.4l2.91 2.91-84.62-.989a.99.99 0 0 0 0 1.98l84.62.989-2.91 2.91a.99.99 0 0 0 1.4 1.4l4.6-4.6a.989.989 0 0 0 0-1.4z" transform="translate(502.891 99.504)" style="fill-rule:evenodd;opacity:.2;fill:#fff"/>
    </g>
</svg>
