<svg id="v2_icon" data-name="v2 icon" xmlns="http://www.w3.org/2000/svg" width="32" height="32" viewBox="0 0 32 32">
    <defs>
        <clipPath id="clip-path">
            <path id="Rectangle_2721" data-name="Rectangle 2721" style="fill:none" d="M0 0h32v32H0z"/>
        </clipPath>
        <style>
            .cls-3{fill:#fff}
        </style>
    </defs>
    <g id="Group_8427" data-name="Group 8427" style="clip-path:url(#clip-path)">
        <path id="Path_6154" data-name="Path 6154" class="cls-3" d="M16 2A14 14 0 1 1 2 16 14.015 14.015 0 0 1 16 2m0-2a16 16 0 1 0 16 16A16 16 0 0 0 16 0"/>
        <path id="Path_6155" data-name="Path 6155" class="cls-3" d="M14.636 11.279h2.14l-3.4 9.994h-2.31l-3.389-9.994h2.14l1.88 5.947c.105.351.212.76.324 1.227s.181.792.209.974a17.613 17.613 0 0 1 .512-2.2z"/>
        <path id="Path_6156" data-name="Path 6156" class="cls-3" d="M24.323 21.273h-6.986V19.8l2.508-2.536q1.115-1.141 1.457-1.582a3.48 3.48 0 0 0 .492-.817 2.089 2.089 0 0 0 .15-.78 1.136 1.136 0 0 0-.331-.9 1.289 1.289 0 0 0-.886-.294 2.545 2.545 0 0 0-1.128.267 5.787 5.787 0 0 0-1.141.758l-1.149-1.36a7.582 7.582 0 0 1 1.224-.889 4.532 4.532 0 0 1 1.06-.4 5.445 5.445 0 0 1 1.285-.14 3.8 3.8 0 0 1 1.654.342 2.636 2.636 0 0 1 1.114.957 2.546 2.546 0 0 1 .4 1.408 3.446 3.446 0 0 1-.243 1.3 4.984 4.984 0 0 1-.752 1.24 18.27 18.27 0 0 1-1.794 1.812L19.969 19.4v.1h4.354z"/>
    </g>
</svg>
