<svg xmlns="http://www.w3.org/2000/svg" width="281" height="217" viewBox="0 0 281 217">
    <defs>
        <style>
            .cls-1,.cls-3{fill:#fff}.cls-1,.cls-2{font-size:8px}.cls-1,.cls-2,.cls-3{font-family:OpenSans,Open Sans}.cls-2{fill:#f8ba15}.cls-3{font-size:13px}.cls-4,.cls-7{fill:none}.cls-4{stroke:#2f3250}.cls-7{stroke:#fff;stroke-linecap:round}
        </style>
    </defs>
    <g id="graph" transform="translate(8 105)">
        <g id="numbers" transform="translate(0 -105)">
            <g id="Group_6185" data-name="Group 6185" transform="translate(30 162)">
                <text id="Submit_request" data-name="Submit request" class="cls-1" transform="translate(16 43)"><tspan x="-13.246" y="0">Submit</tspan><tspan x="-14.348" y="10">request</tspan></text>
                <text id="_15_M" data-name="15 M" class="cls-2" transform="translate(35 11)"><tspan x="-9.225" y="0">15 M</tspan></text>
                <text id="_60_M" data-name="60 M" class="cls-2" transform="translate(114 11)"><tspan x="-9.225" y="0">60 M</tspan></text>
                <text id="_11_Hours" data-name="11 Hours" class="cls-2" transform="translate(181 11)"><tspan x="-16.977" y="0">11 Hours</tspan></text>
                <text id="Min_wait_time" data-name="Min wait time" class="cls-1" transform="translate(54 43)"><tspan x="-15.877" y="0">Min wait</tspan><tspan x="-8.389" y="10">time</tspan></text>
                <text id="Target" class="cls-1" transform="translate(90 43)"><tspan x="-11.918" y="0">Target</tspan></text>
                <text id="After_target_mid_time" data-name="After target mid time" class="cls-1" transform="translate(138 43)"><tspan x="-21.332" y="0">After target</tspan><tspan x="-16.611" y="10">mid time</tspan></text>
                <text id="After_target_max_time" data-name="After target max time" class="cls-1" transform="translate(221 43)"><tspan x="-21.332" y="0">After target</tspan><tspan x="-17.469" y="10">max time</tspan></text>
            </g>
            <text id="_5.00_" data-name="5%" class="cls-3" transform="translate(-8 14)"><tspan x="0" y="0">5.00%</tspan></text>
            <text id="_4.00_" data-name="4%" class="cls-3" transform="translate(-8 47)"><tspan x="0" y="0">4.00%</tspan></text>
            <text id="_3.00_" data-name="3%" class="cls-3" transform="translate(-8 81)"><tspan x="0" y="0">3.00%</tspan></text>
            <text id="_2.00_" data-name="2%" class="cls-3" transform="translate(-8 114)"><tspan x="0" y="0">2.00%</tspan></text>
            <text id="_1.00_" data-name="1%" class="cls-3" transform="translate(-8 148)"><tspan x="0" y="0">1.00%</tspan></text>
            <text id="_0.00_" data-name="0%" class="cls-3" transform="translate(-8 181)"><tspan x="0" y="0">0.00%</tspan></text>
        </g>
        <g id="lines" transform="translate(48 -96.999)">
            <g id="Group_8233" data-name="Group 8233" transform="translate(8)">
                <path id="Line_202" data-name="Line 202" class="cls-4" transform="translate(-8.5 .5)" d="m0 0 .5 168"/>
                <path id="Line_203" data-name="Line 203" class="cls-4" transform="translate(199.5 .5)" d="m0 0 .5 168"/>
            </g>
            <g id="Group_6187" data-name="Group 6187" transform="translate(0 .5)">
                <path id="Line_19" data-name="Line 19" transform="translate(.5 168)" style="stroke:#fff;fill:none" d="M0 0h208"/>
                <path id="Line_22" data-name="Line 22" class="cls-4" transform="translate(.316 134)" d="M0 0h207.684"/>
                <path id="Line_192" data-name="Line 192" class="cls-4" transform="translate(.316 101)" d="M0 0h207.684"/>
                <path id="Line_23" data-name="Line 23" class="cls-4" transform="translate(.316 67)" d="M0 0h207.684"/>
                <path id="Line_24" data-name="Line 24" class="cls-4" transform="translate(.316 34)" d="M0 0h207.684"/>
                <path id="Line_115" data-name="Line 115" class="cls-4" d="M0 0h208"/>
            </g>
            <g id="Group_6186" data-name="Group 6186" transform="translate(8 152.5)" style="opacity:.5">
                <path id="Line_25" data-name="Line 25" class="cls-7" transform="translate(-8 .138)" d="M0 31.362V0"/>
                <path id="Line_28" data-name="Line 28" class="cls-7" transform="translate(24.001)" d="M0 30.903V0"/>
                <path id="Line_193" data-name="Line 193" class="cls-7" transform="translate(112)" d="M0 30.903V0"/>
                <path id="Line_33" data-name="Line 33" class="cls-7" transform="translate(64 .138)" d="M0 31.362V0"/>
                <path id="Line_32" data-name="Line 32" class="cls-7" transform="translate(199.5 .138)" d="M0 31.362V0"/>
            </g>
        </g>
        <path id="Path_6083" data-name="Path 6083" d="m96.474-241.81 40 66 48-66 80-102" transform="translate(-16.474 246.81)" style="stroke:#fea716;stroke-linecap:round;fill:none"/>
    </g>
</svg>
