<svg xmlns="http://www.w3.org/2000/svg" width="928" height="336" viewBox="0 0 928 336">
    <defs>
        <style>
            .cls-1,.cls-3{fill:#fff}.cls-1,.cls-2{font-size:10px}.cls-1,.cls-2,.cls-3{font-family:OpenSans,Open Sans}.cls-2{fill:#f8ba15}.cls-3{font-size:13px}.cls-5,.cls-7{fill:none}.cls-7{stroke:#fff}.cls-5{stroke:#2f3250}.cls-7{stroke-linecap:round}
        </style>
    </defs>
    <g id="graph" transform="translate(0 105)">
        <g id="numbers" transform="translate(0 -105)">
            <g id="Group_6185" data-name="Group 6185" transform="translate(30 274)">
                <text id="Submit_request" data-name="Submit request" class="cls-1" transform="translate(18 43)"><tspan x="-16.558" y="0">Submit</tspan><tspan x="-17.935" y="16">request</tspan></text>
                <text id="_15_minutes" data-name="15 minutes" class="cls-2" transform="translate(56 11)"><tspan x="-26.025" y="0">15 minutes</tspan></text>
                <text id="_1_Hour" data-name="1 Hour" class="cls-2" transform="translate(298 11)"><tspan x="-15.977" y="0">1 Hour</tspan></text>
                <text id="_11_Hours" data-name="11 Hours" class="cls-2" transform="translate(622 11)"><tspan x="-21.221" y="0">11 Hours</tspan></text>
                <text id="Min_wait_time" data-name="Min wait time" class="cls-1" transform="translate(91 43)"><tspan x="-19.846" y="0">Min wait</tspan><tspan x="-10.486" y="16">time</tspan></text>
                <text id="Target" class="cls-1" transform="translate(216 43)"><tspan x="-14.897" y="0">Target</tspan></text>
                <text id="After_target_mid_time" data-name="After target mid time" class="cls-1" transform="translate(363 43)"><tspan x="-26.665" y="0">After target</tspan><tspan x="-20.764" y="16">mid time</tspan></text>
                <text id="After_target_max_time" data-name="After target max time" class="cls-1" transform="translate(871 43)"><tspan x="-26.665" y="0">After target</tspan><tspan x="-21.836" y="16">max time</tspan></text>
            </g>
            <text id="_5.00_" data-name="5%" class="cls-3" transform="translate(0 14)"><tspan x="0" y="0">5.00%</tspan></text>
            <text id="_4.00_" data-name="4%" class="cls-3" transform="translate(0 69.999)"><tspan x="0" y="0">4.00%</tspan></text>
            <text id="_3.00_" data-name="3%" class="cls-3" transform="translate(0 126)"><tspan x="0" y="0">3.00%</tspan></text>
            <text id="_2.00_" data-name="2%" class="cls-3" transform="translate(0 181)"><tspan x="0" y="0">2.00%</tspan></text>
            <text id="_1.00_" data-name="1%" class="cls-3" transform="translate(0 237)"><tspan x="0" y="0">1.00%</tspan></text>
            <text id="_0.00_" data-name="0%" class="cls-3" transform="translate(0 293)"><tspan x="0" y="0">0.00%</tspan></text>
        </g>
        <g id="lines" transform="translate(48 -96.999)">
            <g id="Group_6187" data-name="Group 6187" transform="translate(0 .5)">
                <path id="Line_19" data-name="Line 19" transform="translate(.999 280)" style="stroke:#fff;fill:none" d="M0 0h855"/>
                <path id="Line_22" data-name="Line 22" class="cls-5" transform="translate(.316 223.999)" d="M0 0h855.684"/>
                <path id="Line_192" data-name="Line 192" class="cls-5" transform="translate(.316 168)" d="M0 0h855.684"/>
                <path id="Line_23" data-name="Line 23" class="cls-5" transform="translate(.316 112)" d="M0 0h855.684"/>
                <path id="Line_24" data-name="Line 24" class="cls-5" transform="translate(.316 56)" d="M0 0h855.684"/>
                <path id="Line_115" data-name="Line 115" class="cls-5" d="M0 0h856"/>
            </g>
            <g id="Group_8240" data-name="Group 8240">
                <path id="Line_206" data-name="Line 206" class="cls-5" transform="translate(.5 .5)" d="M0 0v280"/>
                <path id="Line_207" data-name="Line 207" class="cls-5" transform="translate(856 .5)" d="M0 0v280"/>
            </g>
            <g id="Group_6186" data-name="Group 6186" transform="translate(.5 264.5)" style="opacity:.5">
                <path id="Line_25" data-name="Line 25" class="cls-7" transform="translate(0 .138)" d="M0 31.362V0"/>
                <path id="Line_28" data-name="Line 28" class="cls-7" transform="translate(198.664)" d="M0 30.903V0"/>
                <path id="Line_193" data-name="Line 193" class="cls-7" transform="translate(351.143)" d="M0 30.903V0"/>
                <path id="Line_33" data-name="Line 33" class="cls-7" transform="translate(71.5 .138)" d="M0 31.362V0"/>
                <path id="Line_32" data-name="Line 32" class="cls-7" transform="translate(855.5 .138)" d="M0 31.362V0"/>
            </g>
        </g>
        <path id="Path_6083" data-name="Path 6083" d="m-167.526-231.81 128 168 152-168 504-112" transform="translate(287.526 246.81)" style="stroke:#fea716;stroke-linecap:round;fill:none"/>
    </g>
</svg>
