<svg xmlns="http://www.w3.org/2000/svg" width="24" height="24" viewBox="0 0 24 24">
  <defs>
    <style>
      .cls-1 {
        fill: none;
      }

      .cls-2 {
        fill: #bb1e52;
      }

      .cls-3 {
        fill: #f8ba15;
      }
    </style>
  </defs>
  <g id="hot" transform="translate(-1294 -206)">
    <rect id="Rectangle_2762" data-name="Rectangle 2762" class="cls-1" width="24" height="24" transform="translate(1294 206)"/>
    <path id="Path_6223" data-name="Path 6223" class="cls-2" d="M19.48,12.352c-1.57-4.08-7.16-4.3-5.81-10.23a.5.5,0,0,0-.36-.61.454.454,0,0,0-.39.06,9.328,9.328,0,0,0-4.05,12.05.492.492,0,0,1-.29.64.5.5,0,0,1-.46-.05,4.988,4.988,0,0,1-1.84-4.75.5.5,0,0,0-.44-.56.493.493,0,0,0-.47.22A9.416,9.416,0,0,0,4,14.372a8.059,8.059,0,0,0,6.81,7.54,8.6,8.6,0,0,0,6.95-1.87,6.912,6.912,0,0,0,1.72-7.69m-9.28,5.03a3.119,3.119,0,0,0,2.38-2.31c.33-1.43-.96-2.83-.09-5.09.33,1.87,3.27,3.04,3.27,5.08.08,2.53-2.66,4.7-5.56,2.32" transform="translate(1294 206)"/>
    <path id="Path_6224" data-name="Path 6224" class="cls-3" d="M15.761,15.062c.08,2.53-2.66,4.7-5.56,2.32a3.119,3.119,0,0,0,2.38-2.31c.33-1.43-.96-2.83-.09-5.09.33,1.87,3.27,3.04,3.27,5.08" transform="translate(1294 206)"/>
  </g>
</svg>
