<svg xmlns="http://www.w3.org/2000/svg" id="guide" width="64" height="64" viewBox="0 0 64 64">
    <defs>
        <style>
            .cls-2{fill:#007acb}
        </style>
    </defs>
    <circle id="Ellipse_234" cx="32" cy="32" r="32" fill="#eefcff"/>
    <g id="Group_7876" transform="translate(-366.985 -366.797)">
        <g id="Group_7876-2" transform="translate(389.909 399.395)">
            <path id="Path_5762" d="M398.884 411.642c-4.119 0-8.476-3.545-8.476-6.9v-3.6a.449.449 0 0 1 .675-.387l7.786 4.546 7.815-4.562a.449.449 0 0 1 .675.388v3.614c.001 3.421-4.277 6.901-8.475 6.901zm-7.578-9.713v2.817c0 2.859 3.966 6 7.578 6 3.683 0 7.578-3.083 7.578-6v-2.832l-7.366 4.3a.444.444 0 0 1-.453 0z" class="cls-2" transform="translate(-390.408 -400.682)"/>
        </g>
        <g id="Group_7877" transform="translate(385.511 388.064)">
            <path id="Path_5763" d="M407.833 409.836a.7.7 0 0 1-.086 0 .776.776 0 0 1-.614-.408 1.085 1.085 0 0 1-.022-.963l.035-.081c0-.005.022-.049.035-.078a.368.368 0 0 1 .021-.067 3.991 3.991 0 0 1 .427-.8c.124-.2.268-.4.42-.6.056-.072.11-.14.166-.208a1.816 1.816 0 0 1-.13-.638 1.888 1.888 0 0 1 .581-1.368 1.655 1.655 0 0 1 .14-.119v-6.027a.554.554 0 0 0-.413-.537.547.547 0 0 0-.42.057l-8.873 5.181a1.452 1.452 0 0 1-1.466 0l-11.4-6.659a1.457 1.457 0 0 1-.56-.594 1.453 1.453 0 0 1 .636-1.953l11.406-5.747a1.449 1.449 0 0 1 1.309 0l11.745 5.92a1.344 1.344 0 0 1 .759 1.07.426.426 0 0 1 0 .1 1.158 1.158 0 0 1-.421.84v8.35a1.765 1.765 0 0 1 .207.183 1.876 1.876 0 0 1 .19 2.344l.05.08c.105.165.217.319.334.472a4.263 4.263 0 0 1 .256.35l.076.123a.5.5 0 0 1 .051.082 1.25 1.25 0 0 1 .126.538.857.857 0 0 1-.357.7.883.883 0 0 1-.743.148.959.959 0 0 1-.228-.066 1.55 1.55 0 0 1-.365-.244 1.491 1.491 0 0 1-.212-.195c-.153-.177-.286-.348-.418-.521-.111-.147-.215-.294-.316-.444l-.115.163c-.156.23-.33.461-.508.681-.092.113-.186.22-.28.326l-.186.212a1.151 1.151 0 0 1-.837.397zm.214-1.3a.756.756 0 0 1-.06.157c0 .006-.059.142-.063.148a.2.2 0 0 0-.017.067.26.26 0 0 0 .074-.057l.2-.226c.087-.1.172-.194.256-.3.162-.2.32-.409.466-.625s.3-.418.449-.622a.438.438 0 0 1 .435-.175l.114.023a.567.567 0 0 1 .452.318 1.266 1.266 0 0 0 .144.293c.094.141.19.277.293.413.119.157.243.313.373.465a1.006 1.006 0 0 0 .115.1.754.754 0 0 0 .167.118c.043-.012.045-.046.032-.083v-.006l-.092-.147c-.041-.063-.091-.131-.144-.2l-.007-.008a1.712 1.712 0 0 1-.119-.148.28.28 0 0 1-.028-.044c-.1-.134-.195-.269-.284-.409l-.071-.113c-.028-.045-.057-.092-.089-.136a.553.553 0 0 1-.013-.67.976.976 0 0 0 .035-1.375.992.992 0 0 0-.225-.167.449.449 0 0 1-.23-.392v-8.84a.45.45 0 0 1 .268-.411.259.259 0 0 0 .154-.221.442.442 0 0 0-.252-.326l-11.759-5.926a.552.552 0 0 0-.5 0l-11.406 5.747a.553.553 0 0 0-.241.744.548.548 0 0 0 .214.227l11.4 6.658a.548.548 0 0 0 .559 0l8.874-5.181a1.453 1.453 0 0 1 2.184 1.255v6.27a.45.45 0 0 1-.226.39 1.026 1.026 0 0 0-.194.137.979.979 0 0 0-.3.707.923.923 0 0 0 .144.467.451.451 0 0 1-.027.515l-.336.418c-.134.179-.264.359-.384.553a3.194 3.194 0 0 0-.335.62z" class="cls-2" transform="translate(-385.511 -388.064)"/>
        </g>
    </g>
</svg>
