<svg xmlns="http://www.w3.org/2000/svg" width="64" height="64" viewBox="0 0 64 64">
    <defs>
        <clipPath id="clip-path">
            <path id="Rectangle_588" d="M0 0H47.527V44.157H0z" class="cls-1"/>
        </clipPath>
        <style>
            .cls-1{fill:none}.cls-3{fill:#f6861d}.cls-4{fill:#763e17}.cls-6{fill:#e5761c}.cls-7{fill:#e0761d}.cls-8{fill:#e4761d}.cls-10{fill:#d7c0b2}.cls-14{fill:#ce6018}.cls-15{fill:#cd6017}.cls-16{fill:#ce6017}.cls-17{fill:#e57520}.cls-19{fill:#283644}.cls-22{fill:#e67518}
        </style>
    </defs>
    <g id="metamask" transform="translate(-.23)">
        <path id="Rectangle_589" d="M0 0H64V64H0z" class="cls-1" transform="translate(.23)"/>
        <g id="Group_6211" clip-path="url(#clip-path)" transform="translate(8 10)">
            <path id="Path_4154" d="M17.359 5.744q6.2 0 12.409-.006c.088 0 .174.007.262.011a.551.551 0 0 1-.016.148c-.533 1.406-1.065 2.811-1.606 4.214-.3.774-.62 1.54-.917 2.315-.106.276-.17.569-.253.855 0 .026-.006.052-.01.079l-.065.223c-.027.511-.048 1.023-.083 1.533-.095 1.355-.2 2.709-.293 4.064-.04.585-.05 1.172-.087 1.758-.065 1.044-.141 2.088-.214 3.132v.374a.563.563 0 0 0-.073.164c-.079 1.009-.175 2.017-.223 3.027-.052 1.063-.062 2.13-.08 3.195-.011.6 0 1.207 0 1.81v2.886c.121-.589.22-1.122.339-1.65.276-1.218.56-2.433.839-3.65.062-.269.039-.574.324-.745 1.071-.317 2.14-.638 3.212-.95.584-.169 1.173-.321 1.76-.48.054.108.152.214.155.325.017.5.008 1 .007 1.5l-.073.377v1.433l-.075.6c-.269.2-.534.4-.807.592-.893.632-1.8 1.25-2.683 1.892-.717.519-1.414 1.065-2.119 1.6a.058.058 0 0 1-.044.019l-.807-.5a1.047 1.047 0 0 0-.322-.117q-2.391-.012-4.781 0a1.128 1.128 0 0 0-.359.137l-.745.462c-.17-.144-.335-.293-.51-.429q-1.689-1.3-3.381-2.594c-.462-.354-.928-.7-1.393-1.055 0-.024 0-.047-.005-.071-.024-.823-.043-1.645-.073-2.467-.013-.361-.07-.721-.06-1.079.005-.209-.163-.487.155-.625.84.235 1.68.468 2.519.707.789.225 1.577.459 2.365.688l.227.129c.049.257.106.513.149.771.288 1.729.574 3.46.869 5.24.04-.826.089-1.6.111-2.371.035-1.24.085-2.482.07-3.722-.018-1.615-.092-3.229-.146-4.844a.723.723 0 0 0-.074-.2v-.379l-.221-4c-.051-.924-.108-1.847-.151-2.771-.058-1.237-.1-2.474-.155-3.712l-.085-.155.006-.137-.075-.082a1.234 1.234 0 0 0-.021-.335c-.26-.741-.529-1.479-.8-2.216-.447-1.225-.887-2.447-1.344-3.662-.16-.426-.365-.837-.549-1.254" class="cls-3"/>
            <path id="Path_4155" d="M27.228 13.36c0-.027.007-.053.011-.08q2.6-1.938 5.206-3.877l6.057-4.5q2.5-1.86 5-3.728c.451-.339.881-.714 1.323-1.075h.007l.135-.062c.272-.122.287.1.341.259q.734 2.152 1.463 4.308c.192.569.358 1.15.586 1.7a2.413 2.413 0 0 1 .1 1.468c-.441 2.136-.855 4.277-1.305 6.411-.082.388-.04.644.325.837a4 4 0 0 1 .546.425l-1.44 1.144 1.086.908-1.44 1.366c.225.173.4.326.6.454.249.164.258.313.061.542-.623.721-1.226 1.458-1.838 2.188a3.633 3.633 0 0 1-.444-.07c-.973-.283-1.942-.575-2.914-.861-1.321-.388-2.643-.779-3.967-1.159-.793-.227-1.593-.434-2.389-.651a2.947 2.947 0 0 1-.345-.223q-2.454-2.067-4.905-4.14c-.553-.464-1.122-.911-1.683-1.366l-.175-.218" class="cls-4"/>
            <path id="Path_4156" d="M20.143 13.291v.137l-.15.152c-.786.654-1.576 1.305-2.357 1.966q-2.216 1.875-4.422 3.761c-.147.031-.3.052-.44.094-1.237.366-2.473.738-3.711 1.1-1.37.4-2.739.806-4.112 1.194-.477.135-.965.228-1.448.341-.607-.719-1.209-1.442-1.827-2.152-.2-.228-.172-.38.071-.538.187-.122.36-.265.6-.442L.871 17.57l1.12-.924-1.446-1.135c.28-.212.5-.39.733-.554a.4.4 0 0 0 .175-.475Q.721 11.04.031 7.589a1.9 1.9 0 0 1 .059-.91C.738 4.634 1.414 2.6 2.079.559c.165-.505.162-.506.633-.252a1.736 1.736 0 0 0 .257.3q2.322 1.72 4.651 3.431 3 2.22 6.007 4.442c1.277.946 2.548 1.9 3.828 2.841.865.637 1.742 1.26 2.614 1.889z" class="cls-4"/>
            <path id="Path_4157" d="M34.336 19.307c.8.216 1.6.423 2.389.651 1.324.379 2.645.77 3.966 1.159.972.286 1.942.578 2.915.86a3.423 3.423 0 0 0 .444.071c.178.608.342 1.22.535 1.822q.865 2.7 1.75 5.4c.274.84.56 1.677.835 2.516a2.485 2.485 0 0 1 .062.327c-.128.058-.257.169-.385.168-1.977-.014-3.953-.045-5.929-.066-.84-.009-1.679 0-2.519 0h-2.186q-1.733.036-3.466.069c.049-.2.1-.4.148-.6.55-1.035 1.11-2.065 1.65-3.106.616-1.185 1.219-2.378 1.818-3.572.166-.331.3-.677.453-1.015.052-.076.1-.151.155-.225.1-.357-.187-.561-.339-.8-.74-1.153-1.507-2.288-2.259-3.433a.607.607 0 0 1-.037-.228" class="cls-3"/>
            <path id="Path_4158" d="M3.5 22.037c.483-.112.971-.206 1.447-.34 1.373-.389 2.743-.792 4.112-1.194 1.238-.364 2.474-.737 3.712-1.1.143-.043.293-.064.439-.094-.691 1.033-1.388 2.063-2.07 3.1-.257.39-.482.8-.721 1.2-.3.1.014.2.005.3a.944.944 0 0 0 .049.179c.676 1.308 1.357 2.613 2.033 3.922.5.971 1 1.941 1.492 2.918.209.419.382.855.571 1.283H8.916c-2.693.026-5.385.048-8.077.08-.263 0-.417-.047-.376-.344.176-.608.341-1.218.53-1.821.422-1.342.855-2.68 1.283-4.02.38-1.187.763-2.371 1.137-3.558a4.122 4.122 0 0 0 .092-.512" class="cls-3"/>
            <path id="Path_4159" fill="#e5761d" d="M.456 31.948c-.041.3.113.349.376.345 2.692-.033 5.385-.055 8.077-.08.446.708.882 1.422 1.34 2.122q1.278 1.953 2.577 3.894c.3.449.618.887.995 1.426l.822-7.366c.464.351.93.7 1.393 1.055q1.692 1.294 3.38 2.594c.176.136.341.285.511.429l-.019.077c-.1.044-.21.081-.308.134-1.424.766-2.846 1.539-4.272 2.3-.524.281-1.06.542-1.59.811-1.115.317-2.229.636-3.345.948-1.566.439-3.134.872-4.7 1.31-.638.179-1.276.36-1.909.553-.434.132-.49.1-.62-.36-.477-1.66-.965-3.317-1.443-4.977C1.343 35.854.973 34.542.6 33.23a5.221 5.221 0 0 1-.21-.72 2.154 2.154 0 0 1 .068-.562"/>
            <path id="Path_4160" d="M38.4 32.216c.84 0 1.679-.009 2.519 0 1.975.021 3.952.052 5.928.065.128 0 .257-.109.386-.168a1.461 1.461 0 0 1 .025.462c-.377 1.363-.769 2.721-1.158 4.08q-.643 2.256-1.29 4.511c-.12.421-.25.84-.368 1.261-.063.224-.175.3-.412.228q-2.2-.633-4.407-1.249-2.84-.793-5.678-1.58c-.1-.025-.194-.05-.292-.077a.1.1 0 0 0-.007-.065.572.572 0 0 1 .042-.142c.637-.958 1.281-1.911 1.914-2.871q1.185-1.8 2.352-3.607c.172-.268.3-.566.443-.849" class="cls-6"/>
            <path id="Path_4161" d="M20.069 13.21c-.873-.629-1.75-1.252-2.614-1.89-1.281-.941-2.551-1.895-3.828-2.84q-3-2.223-6.007-4.442Q5.3 2.32 2.969.606a1.814 1.814 0 0 1-.257-.3c.611.208 1.229.4 1.837.628q3.217 1.191 6.429 2.4l6.144 2.3c.081.031.157.076.237.114.184.417.388.827.549 1.254.457 1.216.9 2.439 1.342 3.66.268.738.538 1.476.8 2.217a1.194 1.194 0 0 1 .023.335" class="cls-7"/>
            <path id="Path_4162" d="M44.824.1c-.441.36-.872.735-1.328 1.078q-2.49 1.873-4.996 3.728-3.027 2.251-6.058 4.5l-5.206 3.878c.083-.285.147-.578.253-.855.3-.775.618-1.541.917-2.315.541-1.4 1.072-2.808 1.6-4.214a.551.551 0 0 0 .017-.148l6.982-2.7q3.73-1.435 7.456-2.863A2.955 2.955 0 0 1 44.824.1" class="cls-8"/>
            <path id="Path_4163" fill="#c0ad9f" d="M33.122 40.056a56.029 56.029 0 0 1-4.884 3.371 4.145 4.145 0 0 1-2.669.727c-1.756-.054-3.514-.018-5.272-.038a1.292 1.292 0 0 1-.7-.2c-1.743-1.243-3.471-2.506-5.2-3.767a1.261 1.261 0 0 1-.156-.162.564.564 0 0 1 .189.013c1.079.486 2.158.972 3.233 1.468.606.279 1.2.577 1.811.869V40.5a1.137 1.137 0 0 1 1.031-.369c1.848.021 3.7.021 5.543.012a1.64 1.64 0 0 1 1.381.373v1.843c.319-.121.528-.191.729-.279 1.474-.641 2.944-1.291 4.421-1.925a2.4 2.4 0 0 1 .543-.1"/>
            <path id="Path_4164" d="M33.122 40.056a2.4 2.4 0 0 0-.543.1c-1.477.634-2.947 1.284-4.421 1.925-.2.088-.41.158-.729.279v-1.846l-.49-4.125a.052.052 0 0 0 .044-.019.749.749 0 0 0 .156.143c1.586.8 3.171 1.6 4.763 2.4.549.272 1.114.512 1.67.768l.076.007a.1.1 0 0 1 .007.065l-.533.307" class="cls-10"/>
            <path id="Path_4165" fill="#d7c0b1" d="M19.474 40.5v1.838c-.607-.292-1.205-.59-1.811-.869Q16.05 40.724 14.43 40a.564.564 0 0 0-.186-.014c-.169-.1-.338-.2-.507-.295.53-.269 1.066-.53 1.591-.811 1.426-.763 2.847-1.535 4.271-2.3.1-.053.206-.09.309-.134-.009.124-.013.249-.027.372q-.2 1.842-.407 3.683"/>
            <path id="Path_4166" d="M33.653 39.749l.291.077-.291-.077" class="cls-10"/>
            <path id="Path_4167" d="M44.967.035L44.831.1l.136-.062" class="cls-8"/>
            <path id="Path_4168" fill="#e5751c" d="M34.336 19.307a.607.607 0 0 0 .037.228c.752 1.145 1.519 2.28 2.259 3.433.152.238.443.442.339.8a1.549 1.549 0 0 0-.353-.072c-.551.015-1.1.048-1.649.07-1.226.052-2.45.106-3.676.149-1.6.058-3.2.1-4.807.157.073-1.044.149-2.088.214-3.133.037-.585.047-1.172.087-1.758.093-1.355.2-2.709.293-4.063.035-.511.056-1.022.082-1.533l.24-.005c.562.455 1.13.9 1.684 1.366q2.457 2.065 4.9 4.14a3.189 3.189 0 0 0 .346.223"/>
            <path id="Path_4169" d="M10.418 23.613c.239-.4.463-.813.72-1.2.683-1.039 1.38-2.068 2.071-3.1l4.422-3.761c.781-.662 1.571-1.312 2.357-1.967h.235c.05 1.238.1 2.475.154 3.712.043.924.1 1.847.151 2.771l.221 4c-1.124-.051-2.248-.107-3.373-.15-1.477-.057-2.953-.1-4.429-.154-.776-.026-1.552-.049-2.327-.08a.723.723 0 0 1-.2-.073" class="cls-6"/>
            <path id="Path_4170" fill="#171717" d="M19.474 40.5q.2-1.842.407-3.683c.014-.123.018-.248.027-.372l.019-.077c.247-.154.5-.307.744-.462l5.462-.014.806.5.49 4.125a1.64 1.64 0 0 0-1.381-.373c-1.847.008-3.695.008-5.543-.012a1.134 1.134 0 0 0-1.031.369"/>
            <path id="Path_4171" d="M26.486 24.07c1.6-.052 3.2-.1 4.807-.156 1.225-.043 2.45-.1 3.675-.15.55-.022 1.1-.054 1.65-.07a1.541 1.541 0 0 1 .352.072c-.051.075-.1.151-.154.226a.886.886 0 0 0-.19.116q-1.8 1.813-3.6 3.629a2.5 2.5 0 0 1-.356.251 6.124 6.124 0 0 0-.539-.317c-1.032-.476-2.068-.942-3.107-1.413-.312.626-.61 1.226-.913 1.823-.2.4-.414.8-.622 1.2-.031-.037-.082-.07-.09-.111-.184-.954-.358-1.911-.542-2.866-.119-.621-.249-1.239-.374-1.858v-.374" class="cls-14"/>
            <path id="Path_4172" d="M10.418 23.613a.723.723 0 0 0 .2.073c.775.031 1.551.054 2.327.08 1.476.05 2.952.1 4.429.154 1.125.043 2.249.1 3.373.15v.374a.781.781 0 0 0-.074.165c-.227 1.211-.448 2.423-.679 3.634-.071.372-.163.74-.246 1.11-.1-.17-.2-.336-.286-.511-.414-.858-.822-1.718-1.239-2.592-.761.349-1.494.679-2.22 1.022-.477.226-.944.472-1.416.708a1.725 1.725 0 0 1-.238-.173q-.985-.978-1.962-1.965c-.314-.319-.6-.666-.917-.979-.337-.33-.7-.635-1.049-.95.008-.1-.308-.2-.005-.3" class="cls-15"/>
            <path id="Path_4173" d="M33.572 39.677c-.557-.256-1.121-.5-1.67-.769q-2.388-1.187-4.764-2.4a.77.77 0 0 1-.155-.143c.7-.534 1.4-1.08 2.119-1.6.887-.643 1.79-1.261 2.684-1.893.272-.192.538-.394.807-.592.075.5.157 1.006.221 1.511.114.887.212 1.776.326 2.663.138 1.071.285 2.142.429 3.212" class="cls-6"/>
            <path id="Path_4174" d="M14.642 32.289l-.821 7.366c-.377-.539-.7-.976-.995-1.426q-1.3-1.943-2.577-3.894c-.458-.7-.895-1.414-1.34-2.122h5.723c0 .024 0 .048.005.071" class="cls-16"/>
            <path id="Path_4175" d="M14.637 32.217h-.069c-.19-.429-.363-.864-.572-1.283-.488-.978-.991-1.947-1.492-2.918q-1.014-1.964-2.033-3.922a.873.873 0 0 1-.048-.179c.35.316.712.62 1.048.951.319.313.6.66.917.978.649.66 1.306 1.314 1.962 1.966a2 2 0 0 0 .239.173l.07.066c-.317.139-.149.416-.155.625-.01.358.048.719.06 1.079.03.822.05 1.645.073 2.467" class="cls-17"/>
            <path id="Path_4176" fill="#e57521" d="M32.672 27.988a2.447 2.447 0 0 0 .356-.251q1.8-1.81 3.6-3.629a.893.893 0 0 1 .191-.116c-.151.339-.288.684-.454 1.016-.6 1.193-1.2 2.386-1.818 3.572-.54 1.04-1.1 2.07-1.65 3.1h-.227v-1.432c.2-.092.325-.2.073-.378 0-.5.01-1-.007-1.5 0-.111-.1-.217-.156-.326l.092-.062"/>
            <path id="Path_4177" d="M26.486 24.444c.125.619.254 1.237.373 1.858.184.955.358 1.912.542 2.866.009.041.059.074.09.111l-.027.142.024.067.121-.007c-.285.171-.263.476-.324.745-.278 1.217-.564 2.432-.839 3.65-.119.528-.219 1.061-.34 1.65v-2.887c0-.6-.009-1.206 0-1.809.019-1.066.028-2.132.08-3.2.049-1.009.145-2.017.224-3.026a.555.555 0 0 1 .074-.164" class="cls-17"/>
            <path id="Path_4178" d="M27.61 29.481l-.121.007a.11.11 0 0 0-.024-.068l.027-.141c.207-.4.418-.8.622-1.2l.913-1.823c1.039.471 2.074.937 3.106 1.412a5.624 5.624 0 0 1 .538.318l-.091.062c-.585.16-1.174.312-1.758.481-1.072.311-2.142.633-3.212.95" class="cls-19"/>
            <path id="Path_4179" d="M14.659 28.047l-.07-.066c.472-.237.939-.483 1.416-.708.726-.343 1.459-.673 2.219-1.023.417.874.826 1.735 1.24 2.592.084.176.19.342.285.512a.053.053 0 0 0 .009.044l-.215.045c-.788-.23-1.575-.463-2.365-.689-.838-.239-1.679-.472-2.519-.707" class="cls-19"/>
            <path id="Path_4180" fill="#e4751f" d="M19.758 29.4a.052.052 0 0 1-.009-.044c.083-.37.176-.738.247-1.11.23-1.211.451-2.423.679-3.634a.734.734 0 0 1 .074-.165.712.712 0 0 1 .074.2c.054 1.614.128 3.229.146 4.844.015 1.24-.035 2.481-.07 3.721-.022.774-.071 1.545-.111 2.372-.3-1.781-.581-3.511-.869-5.241-.043-.257-.1-.513-.149-.77l-.012-.174"/>
            <path id="Path_4181" fill="#3e2b1c" d="M26.133 35.89l-5.462.015a1.128 1.128 0 0 1 .359-.137q2.389-.01 4.781 0a1.047 1.047 0 0 1 .322.117"/>
            <path id="Path_4182" d="M32.668 31.685h.232c-.049.2-.1.4-.148.6l-.15.008.075-.6" class="cls-22"/>
            <path id="Path_4183" d="M32.743 29.875c.252.18.127.286-.073.378z" class="cls-22"/>
            <path id="Path_4184" d="M27.4 13.578l-.241.005.065-.223.176.218" class="cls-8"/>
            <path id="Path_4185" d="M20.222 13.583h-.234c.049-.051.1-.1.149-.152l.085.155" class="cls-7"/>
            <path id="Path_4186" d="M19.758 29.4l.012.174-.227-.129.215-.045" class="cls-15"/>
            <path id="Path_4187" d="M20.143 13.291l-.075-.082z" class="cls-7"/>
            <path id="Path_4188" d="M32.6 32.292l.15-.009 3.466-.068H38.4c-.147.284-.272.582-.444.849q-1.164 1.811-2.351 3.608c-.633.96-1.278 1.913-1.914 2.871a.5.5 0 0 0-.042.142l-.076-.007c-.144-1.071-.291-2.141-.429-3.212-.114-.887-.212-1.777-.326-2.663-.065-.505-.147-1.007-.221-1.511" class="cls-16"/>
            <path id="Path_4191" d="M27.465 29.421a.1.1 0 0 1 .023.067z" class="cls-14"/>
        </g>
    </g>
</svg>
