<svg xmlns="http://www.w3.org/2000/svg" width="16" height="16" viewBox="0 0 16 16">
    <circle cx="8" cy="8" r="8" fill="#007acb"/>
    <path fill="#fff" d="M-1.038-2.368v-.361a1.6 1.6 0 0 1 .2-.815A2.623 2.623 0 0 1-.1-4.282a3.065 3.065 0 0 0 .676-.6.863.863 0 0 0 .164-.513.555.555 0 0 0-.24-.479 1.118 1.118 0 0 0-.654-.166 3.757 3.757 0 0 0-1.67.479l-.532-1.069a4.652 4.652 0 0 1 2.31-.61 2.457 2.457 0 0 1 1.6.483 1.578 1.578 0 0 1 .593 1.289 1.715 1.715 0 0 1-.244.928 3.48 3.48 0 0 1-.928.879 2.864 2.864 0 0 0-.593.527.819.819 0 0 0-.125.474v.293zM-1.194-.7a.819.819 0 0 1 .22-.62.891.891 0 0 1 .64-.21.866.866 0 0 1 .627.215.816.816 0 0 1 .222.615.816.816 0 0 1-.224.61.85.85 0 0 1-.625.222.876.876 0 0 1-.635-.217.813.813 0 0 1-.225-.615z" transform="translate(8 12)"/>
</svg>
