<svg xmlns="http://www.w3.org/2000/svg" width="64" height="64" viewBox="0 0 64 64">
    <path fill="#3b99fc" d="M9.848 6.079a20.315 20.315 0 0 1 28.3 0l.94.921a.965.965 0 0 1 0 1.385l-3.217 3.15a.508.508 0 0 1-.708 0l-1.293-1.267a14.172 14.172 0 0 0-19.743 0l-1.386 1.357a.508.508 0 0 1-.708 0l-3.217-3.15a.965.965 0 0 1 0-1.385zM44.8 12.594l2.864 2.8a.965.965 0 0 1 0 1.385L34.755 29.424a1.016 1.016 0 0 1-1.415 0l-9.164-8.972a.254.254 0 0 0-.354 0l-9.164 8.972a1.016 1.016 0 0 1-1.415 0L.331 16.782a.965.965 0 0 1 0-1.385l2.864-2.8a1.016 1.016 0 0 1 1.415 0l9.164 8.972a.254.254 0 0 0 .354 0l9.164-8.972a1.016 1.016 0 0 1 1.415 0l9.164 8.972a.254.254 0 0 0 .354 0l9.164-8.972a1.016 1.016 0 0 1 1.411-.003z" transform="translate(7.963 17.144)"/>
    <path fill="none" d="M0 0H64V64H0z"/>
</svg>
