<svg xmlns="http://www.w3.org/2000/svg" width="24" height="24" viewBox="0 0 24 24">
    <circle cx="12" cy="12" r="12" fill="#0f112d"/>
    <path fill="#b2bfce" fill-rule="evenodd" d="M8.984 3.158a5.34 5.34 0 0 1 1.64 4.016 5.217 5.217 0 0 1-5.555 5.354h-3.2L0 10.655V-.023h3.264a5.7 5.7 0 0 1 4.23 1.692zm-7.217-1.5h-.023v.376l1.595 1.59v-.383zm1.842 1.53l-1.52-1.526h-.217l1.52 1.527zm.532 0L2.62 1.662h-.426l1.52 1.527zm-.854-1.526h-.562l1.52 1.527h.561zM5.353 3.2l-1.49-1.5c-.157-.023-.307-.03-.472-.038l1.52 1.527h.157c.098-.001.195-.001.285.011zm.479.053L4.38 1.79c-.127-.03-.262-.053-.4-.075L5.465 3.2c.127.011.255.033.367.048zm.434.105L4.851 1.932c-.1-.038-.217-.075-.329-.105l1.445 1.452c.105.021.202.045.299.075zm.165.053c.1.045.2.09.292.135L5.345 2.158c-.1-.053-.2-.105-.307-.15zm-4.687 1.6l.27.271-.06.06-.21-.211v3.94h1.595V3.73L1.744 2.158v.368l1.513 1.512-.06.053-1.453-1.452v.376L3 4.286l-.052.06-1.204-1.218v.384l1.011 1.022-.052.06-.958-.97v.384l.764.775-.052.06-.711-.722v.391l.517.519-.06.06-.457-.466zM6.6 3.316a3.331 3.331 0 0 0-1-1zm2.231-.008l-.606-.624a5.779 5.779 0 0 1 .666 2.677c0 .105 0 .211-.008.308l1.527 1.542v-.037a5.2 5.2 0 0 0-1.576-3.865zM3.549 9.061a3.534 3.534 0 0 0 3.586-3.7 4.093 4.093 0 0 0-.277-1.519 2.937 2.937 0 0 0-1.79-.442H3.549zm5.023-1.767l1.587 1.594a5.9 5.9 0 0 0 .255-1.572L8.879 5.775a5.82 5.82 0 0 1-.307 1.519zm1.557 1.669L8.542 7.369A4.917 4.917 0 0 1 8 8.415l1.62 1.624a4.887 4.887 0 0 0 .509-1.075zm-1.168 1.888a4.561 4.561 0 0 0 .614-.752L7.966 8.482a4.527 4.527 0 0 1-.636.729zM6.618 9.776l1.64 1.647a5.481 5.481 0 0 0 .651-.519l-1.632-1.64a4.407 4.407 0 0 1-.659.512zm-.719.4l1.64 1.647a6.784 6.784 0 0 0 .651-.353L6.551 9.821a4.512 4.512 0 0 1-.651.353zm-.7.263l1.632 1.639a5.786 5.786 0 0 0 .636-.226L5.825 10.2a4.49 4.49 0 0 1-.625.237zm-.681.165l1.625 1.632q.314-.056.606-.135l-1.628-1.634q-.292.079-.607.133zm-.1.015a4.46 4.46 0 0 1-.554.075c1.8 1.6 1.991 1.579 2.179 1.557zm.434 1.7h.217c.1 0 .2 0 .3-.008L3.766 10.7c-.165.008-.329.015-.5.015h-.009zm-4.492-1.6l1.595 1.6h.1l-1.587-1.6zm.217 0l1.595 1.6h.135l-1.595-1.6zm.24 0l1.595 1.6h.172l-1.595-1.6zm.277 0l1.595 1.6H2.9l-1.595-1.6zm.322 0l1.595 1.6h.262l-1.595-1.6zm.367 0l1.595 1.6h.314L2.1 10.716zm.427 0l1.595 1.6h.382l-1.595-1.6zm.487 0l1.595 1.6h.457l-1.6-1.6z" transform="translate(6.5 5.523)"/>
</svg>
