<svg xmlns="http://www.w3.org/2000/svg" width="24" height="24" viewBox="0 0 24 24">
    <circle cx="11" cy="11" r="11" fill="#b2bfce" transform="translate(1 0.999)"/>
    <path fill="#0f112d" d="M557.34 578.137a12.163 12.163 0 0 1-9 11.809.508.508 0 0 1-.425-.536c0-.358.013-1.539.013-3a2.643 2.643 0 0 0-.729-2.028c2.392-.27 4.9-1.2 4.9-5.4a4.275 4.275 0 0 0-1.1-2.94 4.009 4.009 0 0 0-.107-2.9s-.9-.294-2.95 1.122a9.984 9.984 0 0 0-5.375 0c-2.051-1.416-2.953-1.122-2.953-1.122a4 4 0 0 0-.1 2.9 4.283 4.283 0 0 0-1.106 2.94c0 4.194 2.506 5.135 4.889 5.411a2.353 2.353 0 0 0-.682 1.463 2.262 2.262 0 0 1-3.125-.908 2.258 2.258 0 0 0-1.643-1.13s-1.049-.013-.072.666a2.882 2.882 0 0 1 1.191 1.6s.631 2.129 3.616 1.467c.005.914.015 1.6.015 1.863a.519.519 0 0 1-.333.511 12.166 12.166 0 1 1 15.086-11.783z" transform="translate(-533.34 -565.946)"/>
</svg>
