<svg xmlns="http://www.w3.org/2000/svg" width="24" height="24" viewBox="0 0 24 24">
    <circle cx="10" cy="10" r="10" fill="#b2bfce" transform="translate(2 2)"/>
    <path fill="#0f112d" d="M142.491 567.926a12 12 0 1 0 12 12 12 12 0 0 0-12-12zm6.266 7.247l-1 .957a.288.288 0 0 0-.112.278v7.035a.289.289 0 0 0 .112.278l.977.957v.209h-4.916v-.209l1.012-.981c.1-.1.1-.129.1-.279v-5.683l-2.817 7.134h-.38l-3.275-7.134v4.782a.648.648 0 0 0 .18.548l1.316 1.593v.209h-3.732v-.207l1.316-1.6a.628.628 0 0 0 .169-.548v-5.528a.491.491 0 0 0-.158-.409l-1.169-1.406v-.209h3.633l2.809 6.147 2.47-6.147h3.465z" transform="translate(-130.49 -567.926)"/>
</svg>
