<?xml version="1.0" encoding="utf-8"?>
<!-- Generator: Adobe Illustrator 26.0.1, SVG Export Plug-In . SVG Version: 6.00 Build 0)  -->
<svg version="1.1" id="notice_icon" xmlns="http://www.w3.org/2000/svg" xmlns:xlink="http://www.w3.org/1999/xlink" x="0px"
	 y="0px" viewBox="0 0 24 24" style="enable-background:new 0 0 24 24;" xml:space="preserve">
<style type="text/css">
	.st0{fill:none;}
	.st1{fill:#F8BA15;}
	.st2{fill-rule:evenodd;clip-rule:evenodd;fill:#F8BA15;}
</style>
<path id="Path_4826" class="st0" d="M0,0h24v24H0V0z"/>
<g id="Group_6410">
	<path id="Path_4827" class="st1" d="M20.8,22H3.2c-1.3,0-2.3-1-2.3-2.3c0-0.4,0.1-0.8,0.3-1.1L10,3.4c0.6-1.1,2-1.5,3.1-0.8
		c0.3,0.2,0.6,0.5,0.8,0.8l8.8,15.2c0.6,1.1,0.3,2.5-0.8,3.1C21.6,21.9,21.2,22,20.8,22z M12,4.3c-0.1,0-0.2,0.1-0.2,0.1L3,19.6
		c-0.1,0.1,0,0.3,0.1,0.4c0,0,0.1,0,0.1,0h17.5c0.2,0,0.3-0.1,0.3-0.3c0-0.1,0-0.1,0-0.1L12.2,4.4C12.2,4.3,12.1,4.3,12,4.3z"/>
</g>
<path class="st2" d="M13.1,14.2c0.3-0.8,0.1-1.8-0.5-2.4c-0.7-0.7-1.9-0.9-2.7-0.4l1.6,1.6l-0.9,0.9l-1.6-1.6
	c-0.5,0.9-0.3,2,0.4,2.7c0.7,0.7,1.6,0.8,2.4,0.5l2.3,2.3c0.1,0.1,0.3,0.1,0.5,0l0.9-0.9c0.1-0.1,0.1-0.3,0-0.5L13.1,14.2z"/>
</svg>
