<svg xmlns="http://www.w3.org/2000/svg" width="24" height="24" viewBox="0 0 24 24">
    <defs>
        <style>
            .cls-1{fill:#fff}.cls-3{fill:#273071}.cls-6{fill:#1c2547}.cls-8{fill:#222a4d}.cls-10{fill:#5592cd}.cls-12{fill:#0f1f65}
        </style>
    </defs>
    <g id="quickswap_icon" transform="translate(-425 -288)">
        <rect id="Rectangle_2473" width="24" height="24" class="cls-1" rx="12" transform="translate(425 288)"/>
        <g id="Group_6670" transform="translate(43.073 -188.951)">
            <ellipse id="Ellipse_188" cx="10.312" cy="10.26" class="cls-1" rx="10.312" ry="10.26" transform="translate(383.927 478.705)"/>
            <g id="Group_6669" transform="translate(383.927 477.951)">
                <path id="Path_4931" fill="#428ac9" d="M386.6 488.4l.209 1.12.567-.359a3.266 3.266 0 0 0 2.479 1.246c-.243-.751-.192-1.034.319-1.184a5.514 5.514 0 0 1 4.882.645l.223.222c.587 1.533.407 2.586-.667 3.5a6 6 0 0 1-5.849 1.159 6.624 6.624 0 0 1-3.659-2.821c-.426-.632-.786-1.307-1.176-1.963a10.3 10.3 0 0 1 13.914-9.721l-2.426 2.145-.377-1.133.356-.53-.046-.181h-1.863l-1.014.212a2.584 2.584 0 0 0-.5.044 9.1 9.1 0 0 0-6.486 5.915l-.341 1.575a4.9 4.9 0 0 0-.13.6 2.824 2.824 0 0 0 .036.5 2.489 2.489 0 0 0 .485-.2c.364-.256.707-.528 1.064-.791z" transform="translate(-383.927 -478.802)"/>
                <path id="Path_4932" d="M398.941 498.482a5.513 5.513 0 0 0-4.882-.645c-.511.15-.562.433-.319 1.184a3.266 3.266 0 0 1-2.479-1.246l.581-.426.228-.13-.013.009.249-.113h.031a.924.924 0 0 0 .28-.007 8.585 8.585 0 0 1 5.4.014c.285.085.578.144.943.235l-.356-.75.333-.044-.619-.749a7.1 7.1 0 0 1 4.863 2.321 6.788 6.788 0 0 1 1.862 6.1c-.083.488-.222.967-.335 1.45l.01-.016-.126.236.008-.013-.111.144.018-.019-.129.135.022-.022-.159.2v.006l-.1.114a6.511 6.511 0 0 1-4.106 2.1 10.482 10.482 0 0 1-7.159-1.288 2.035 2.035 0 0 1-.258-.209c.177.031.356.051.529.1a5.994 5.994 0 0 0 1.122.3c.845.045 1.695.012 2.542.011l.232-.108.327-.006a6.553 6.553 0 0 0 4.73-3.75 3.609 3.609 0 0 0-.084-3.016l-.587 1.137-.9.586v-.8a2.732 2.732 0 0 0-1.019-2.7l-.343-.105z" class="cls-3" transform="translate(-387.814 -487.416)"/>
                <path id="Path_4933" fill="#172043" d="M395.278 501.817l.343.105a4.932 4.932 0 0 1 .457 2.263c-.047.261-.067.526-.114.9l.675-.471v.8l.9-.586a3.422 3.422 0 0 1-.766 3.164 7.272 7.272 0 0 1-2.932 2.17 1.776 1.776 0 0 0-.366.283l-.327.006-.232.108c-.848 0-1.7.034-2.542-.011a5.994 5.994 0 0 1-1.122-.3c-.173-.045-.353-.064-.529-.1l-.214-.149a9.892 9.892 0 0 1-4.379-6.509 16.848 16.848 0 0 1-.2-1.816c.39.655.75 1.331 1.176 1.963a6.623 6.623 0 0 0 3.659 2.821 6 6 0 0 0 5.849-1.159c1.071-.899 1.251-1.948.664-3.482z" transform="translate(-383.927 -490.53)"/>
                <path id="Path_4934" fill="#448bca" d="M417.3 487.805a2.3 2.3 0 0 0-.366-.566 10.888 10.888 0 0 0-5.728-2.468 6.641 6.641 0 0 0 2.018-2.922 9.39 9.39 0 0 1 4.213 3.74 10.249 10.249 0 0 1 1.315 7.836c-.243-.827-.443-1.664-.737-2.468a7.809 7.809 0 0 0-2.315-3.045l1.991.334.053-.084z" transform="translate(-398.381 -480.017)"/>
                <path id="Path_4935" d="M411.475 504.876c.113-.483.252-.961.335-1.45a6.788 6.788 0 0 0-1.862-6.1 7.1 7.1 0 0 0-4.863-2.321 1.964 1.964 0 0 1-.2-.1c-.258-.173-.514-.35-.857-.585a8.109 8.109 0 0 1 4.365.879 7.413 7.413 0 0 1 3.967 7.181 4.935 4.935 0 0 1-.885 2.496z" class="cls-6" transform="translate(-394.581 -486.612)"/>
                <path id="Path_4936" fill="#6c9cd2" d="M393.834 481.868l1.014-.212a7.95 7.95 0 0 1-.829.976c-1.3 1.118-2.63 2.2-3.935 3.313a1.884 1.884 0 0 0-.312.548 3.745 3.745 0 0 0-1.619 1.792 2.313 2.313 0 0 0-.434.2c-.411.3-.809.613-1.212.921l.341-1.575a3.873 3.873 0 0 0 .456-.291c.61-.515 1.205-1.048 1.817-1.562 1.536-1.288 3.078-2.568 4.613-3.856.066-.055.066-.169.1-.254z" transform="translate(-385.294 -479.914)"/>
                <path id="Path_4937" d="M410.848 479.783a6.641 6.641 0 0 1-2.018 2.922l-2.049 1.2-.054-.088c.159-.315.3-.641.483-.942a1.068 1.068 0 0 1 .4-.392 6.234 6.234 0 0 0 2.487-2.1l.057-.11-.139.018-.334.056 1.363-2.386.075-.013z" class="cls-8" transform="translate(-396.01 -477.951)"/>
                <path id="Path_4938" fill="#6397d0" d="M393.453 486.488a1.885 1.885 0 0 1 .312-.548c1.3-1.113 2.635-2.2 3.935-3.313a7.953 7.953 0 0 0 .829-.976h.9c-.562.523-1.134 1.036-1.681 1.572-.394.386-.756.8-1.133 1.209l-.966.936c-.252.136-.5.283-.757.407-.52.251-.737.967-1.443.926z" transform="translate(-388.974 -479.91)"/>
                <path id="Path_4939" d="M399.816 497.074l.356.75c-.365-.09-.658-.15-.943-.235a8.585 8.585 0 0 0-5.4-.014.924.924 0 0 1-.28.007 7.091 7.091 0 0 1 4.282-.856 18.686 18.686 0 0 1 1.985.348z" class="cls-8" transform="translate(-389.026 -487.885)"/>
                <path id="Path_4940" d="M400.185 484.428c.377-.4.738-.823 1.133-1.209.548-.537 1.12-1.049 1.681-1.572h.963l.046.181-.356.53c-.1.028-.236.025-.279.089a4.644 4.644 0 0 1-2.233 1.582z" class="cls-10" transform="translate(-392.543 -479.91)"/>
                <path id="Path_4941" d="M393.408 490.889c.706.04.923-.676 1.443-.926.258-.124.5-.271.757-.407.1.4.194.793.294 1.2l-.3-.127a11.98 11.98 0 0 1-1.5.906c-.56.24-.838-.056-.694-.646z" class="cls-10" transform="translate(-388.931 -484.1)"/>
                <path id="Path_4942" d="M419.884 493.159l.443.356-.053.084-1.991-.334-2.2-1.2.019-.111 1.918.6.133.036v-.15c.079-.036.186-.125.234-.1.504.26 1 .544 1.497.819z" class="cls-8" transform="translate(-400.969 -485.371)"/>
                <path id="Path_4943" d="M386.356 496.875c.4-.308.8-.624 1.212-.921a2.312 2.312 0 0 1 .434-.2l-.188 1.227c-.355.263-.7.535-1.068.783a2.486 2.486 0 0 1-.485.2 2.827 2.827 0 0 1-.036-.5 4.9 4.9 0 0 1 .131-.589z" class="cls-10" transform="translate(-385.144 -487.388)"/>
                <path id="Path_4944" d="M402.624 488.1l.76-.4c-.116.93-.709 1.428-1.792 1.573a4.149 4.149 0 0 0 .31-.3c.245-.285.482-.579.722-.873z" class="cls-8" transform="translate(-393.288 -483.117)"/>
                <path id="Path_4945" d="M401.953 488.558c-.24.291-.477.585-.722.871a4.149 4.149 0 0 1-.31.3l-.6.075c.259-.924.979-1.038 1.632-1.246z" class="cls-10" transform="translate(-392.617 -483.572)"/>
                <path id="Path_4946" d="M393.2 498.585l-.249.113z" class="cls-8" transform="translate(-388.71 -488.886)"/>
                <path id="Path_4947" d="M392.724 498.806l-.228.13z" class="cls-8" transform="translate(-388.468 -489.003)"/>
                <path id="Path_4948" d="M419.621 517.008l.126-.236z" class="cls-6" transform="translate(-402.842 -498.524)"/>
                <path id="Path_4949" d="M418.874 517.953l.159-.2z" class="cls-6" transform="translate(-402.447 -499.045)"/>
                <path id="Path_4950" d="M393.674 519.4l.214.149z" class="cls-3" transform="translate(-389.092 -499.915)"/>
                <path id="Path_4951" d="M419.166 517.649l.129-.135z" class="cls-6" transform="translate(-402.601 -498.917)"/>
                <path id="Path_4952" d="M418.643 518.3l.1-.114z" class="cls-6" transform="translate(-402.324 -499.275)"/>
                <path id="Path_4953" d="M419.4 517.392l.111-.144z" class="cls-6" transform="translate(-402.726 -498.776)"/>
                <path id="Path_4954" fill="#77a2d5" d="M394.219 482.107c-.032.085-.039.2-.1.25-1.535 1.289-3.078 2.568-4.613 3.856-.612.513-1.207 1.046-1.817 1.562a3.88 3.88 0 0 1-.456.291 9.1 9.1 0 0 1 6.486-5.915 2.586 2.586 0 0 1 .5-.044z" transform="translate(-385.679 -480.153)"/>
                <path id="Path_4955" d="M407.6 501.492l.223.222z" class="cls-12" transform="translate(-396.472 -490.426)"/>
                <path id="Path_4956" d="M404.24 512.721a1.771 1.771 0 0 1 .366-.283 7.273 7.273 0 0 0 2.932-2.17 3.422 3.422 0 0 0 .766-3.164l.587-1.137a3.608 3.608 0 0 1 .084 3.015 6.553 6.553 0 0 1-4.735 3.739z" class="cls-12" transform="translate(-394.692 -492.798)"/>
                <path id="Path_4957" d="M409.824 504.884l-.675.471c.047-.379.067-.644.114-.9a4.932 4.932 0 0 0-.457-2.263 2.732 2.732 0 0 1 1.018 2.692z" class="cls-12" transform="translate(-397.111 -490.794)"/>
                <path id="Path_4958" d="M403.05 520.455l.232-.108z" class="cls-12" transform="translate(-394.061 -500.418)"/>
            </g>
            <path id="Path_4959" d="M414.65 477.979l-1.124 1.424.273.067z" class="cls-1" transform="translate(-15.686 -.015)"/>
        </g>
    </g>
</svg>
