<svg xmlns="http://www.w3.org/2000/svg" id="sushiswap" width="24" height="24" viewBox="0 0 24 24">
    <defs>
        <linearGradient id="linear-gradient" x1="-.003" x2=".03" y1="1.147" y2="1.147" gradientUnits="objectBoundingBox">
            <stop offset="0" stop-color="#27b0e6"/>
            <stop offset=".52" stop-color="#c26bb3"/>
            <stop offset="1" stop-color="#fa52a0"/>
        </linearGradient>
        <clipPath id="clip-path">
            <path id="Path_4888" d="M5.753 2.983a3.622 3.622 0 0 1 3.4-1.135 16.888 16.888 0 0 1 7.76 3.291 16.8 16.8 0 0 1 5.6 6.292 3.624 3.624 0 0 1 .021 3.583l-4.292 6a3.632 3.632 0 0 1-3.4 1.135 16.871 16.871 0 0 1-7.76-3.3 16.739 16.739 0 0 1-5.615-6.281 3.626 3.626 0 0 1-.02-3.583zm16.187 11.6v-.011a2.932 2.932 0 0 0-.094-2.854 16.053 16.053 0 0 0-5.374-5.978 15.985 15.985 0 0 0-7.385-3.152 2.918 2.918 0 0 0-2.74.822l-.021.042a2.955 2.955 0 0 0 .125 2.812 16.045 16.045 0 0 0 5.365 5.99A16 16 0 0 0 19.2 15.41a3.014 3.014 0 0 0 2.709-.781l.031-.053zm-6.687-7.142a7.966 7.966 0 0 1 2.687 3 1.317 1.317 0 0 1 .06 1.323 1.347 1.347 0 0 1-1.271.365 8.035 8.035 0 0 1-3.7-1.584 7.938 7.938 0 0 1-2.687-2.989 1.371 1.371 0 0 1-.063-1.323 1.389 1.389 0 0 1 1.282-.375 8.118 8.118 0 0 1 3.692 1.583z" class="cls-1"/>
        </clipPath>
        <style>
            .cls-1{fill:none}.cls-2{fill:#fff;fill-rule:evenodd}
        </style>
    </defs>
    <g id="Icon-Logo">
        <path id="Rectangle_2471" d="M0 0H24V24H0z" class="cls-1"/>
        <g id="Group_6610">
            <g id="Group_6602">
                <path id="Path_4884" d="M22.822 15.212l-4.306 6a3.937 3.937 0 0 1-3.7 1.272 17.109 17.109 0 0 1-7.923-3.354 17.263 17.263 0 0 1-5.73-6.43 3.937 3.937 0 0 1 .02-3.911l4.3-6a3.955 3.955 0 0 1 3.7-1.271 17.131 17.131 0 0 1 7.934 3.355 17.137 17.137 0 0 1 5.715 6.427 3.947 3.947 0 0 1-.01 3.912zM6.631 3.613a2.606 2.606 0 0 1 2.435-.685 15.653 15.653 0 0 1 7.217 3.094 15.759 15.759 0 0 1 5.255 5.842 2.608 2.608 0 0 1 .132 2.524l.576.411-.576-.411-4.306 6a2.578 2.578 0 0 1-2.426.685 15.7 15.7 0 0 1-7.226-3.093 15.644 15.644 0 0 1-5.246-5.842 2.581 2.581 0 0 1-.131-2.524z" class="cls-2"/>
            </g>
            <g id="Group_6603">
                <path id="Path_4885" d="M6.063 3.346c1.4-1.96 6.165-.954 10.633 2.246s6.953 7.392 5.548 9.353l-4.3 6c-1.4 1.96-6.175.954-10.643-2.247s-6.948-7.389-5.543-9.35z" class="cls-2"/>
            </g>
            <g id="Group_6608">
                <path id="Path_4886" fill="#0e0f23" fill-rule="evenodd" d="M5.753 2.983a3.622 3.622 0 0 1 3.4-1.135 16.888 16.888 0 0 1 7.76 3.291 16.8 16.8 0 0 1 5.6 6.292 3.624 3.624 0 0 1 .021 3.583l-4.292 6a3.632 3.632 0 0 1-3.4 1.135 16.871 16.871 0 0 1-7.76-3.3 16.739 16.739 0 0 1-5.615-6.281 3.626 3.626 0 0 1-.02-3.583zm16.187 11.6v-.011a2.932 2.932 0 0 0-.094-2.854 16.053 16.053 0 0 0-5.374-5.978 15.985 15.985 0 0 0-7.385-3.152 2.918 2.918 0 0 0-2.74.822l-.021.042a2.955 2.955 0 0 0 .125 2.812 16.045 16.045 0 0 0 5.365 5.99A16 16 0 0 0 19.2 15.41a3.014 3.014 0 0 0 2.709-.781l.031-.053zm-6.687-7.142a7.966 7.966 0 0 1 2.687 3 1.317 1.317 0 0 1 .06 1.323 1.347 1.347 0 0 1-1.271.365 8.035 8.035 0 0 1-3.7-1.584 7.938 7.938 0 0 1-2.687-2.989 1.371 1.371 0 0 1-.063-1.323 1.389 1.389 0 0 1 1.282-.375 8.118 8.118 0 0 1 3.692 1.583z"/>
                <g id="Group_6607">
                    <g id="Group_6606" clip-path="url(#clip-path)">
                        <g id="Group_6605">
                            <g id="Group_6604">
                                <path id="Path_4887" fill="url(#linear-gradient)" fill-rule="evenodd" d="M.082 14.787c.114 0 .3.272.406.346a12.873 12.873 0 0 0 1.1.766 4.576 4.576 0 0 0 3.354.791c1.771-.4 3.375-3.484 5.156-3.064 1 .222 1.708 1.631 2.583 2.594a2.782 2.782 0 0 0 2.677 1.186c2.76-.544 3.8-5.979 6.6-5.682 2.323.247 1.416 3.039 3.646 4.027.021.025 5.385-4.694 5.426-5.51.157-3.137-2.822-40.1-2.687-40.1L1.78-20.1z"/>
                            </g>
                        </g>
                    </g>
                </g>
            </g>
            <g id="Group_6609">
                <path id="Path_4889" fill="none" stroke="#fff" stroke-dasharray="0.625 0.625 7.812 7.812" stroke-dashoffset="0.312px" stroke-linecap="round" stroke-linejoin="round" stroke-width="0.312px" d="M5.323 5.13c.114 2.739 2.812 5.354 4.885 7.124 2.885 2.458 7.531 4.3 10.124 3.885"/>
            </g>
        </g>
    </g>
</svg>
