<svg xmlns="http://www.w3.org/2000/svg" width="24" height="24" viewBox="0 0 24 24">
    <defs>
        <style>
            .cls-3,.cls-4{fill:#fa52a0}.cls-4{fill-rule:evenodd}
        </style>
    </defs>
    <g id="uniswap" transform="translate(-480 -288)">
        <path id="Rectangle_2472" fill="none" d="M0 0H24V24H0z" transform="translate(480 288)"/>
        <rect id="Rectangle_2473" width="24" height="24" fill="#fff" rx="12" transform="translate(480 288)"/>
        <g id="Group_6601" transform="translate(484.891 291.545)">
            <path id="Path_4875" d="M4.162 1.554c-.2-.031-.208-.034-.114-.049a3.168 3.168 0 0 1 .9.08A3.88 3.88 0 0 1 6.918 2.9l.176.2.253-.04a5.359 5.359 0 0 1 3.051.38 3.964 3.964 0 0 1 .691.4 1.043 1.043 0 0 1 .064.267 1.65 1.65 0 0 1-.1 1.036.271.271 0 0 0-.029.3.294.294 0 0 0 .261.164c.225 0 .467-.362.579-.864l.045-.2.089.1a3.856 3.856 0 0 1 .929 1.818l.017.138-.081-.125a1.547 1.547 0 0 0-.462-.481 2.929 2.929 0 0 0-1.578-.335 6.418 6.418 0 0 1-1.748-.262c-.785-.254-1.18-.593-2.112-1.807A8.768 8.768 0 0 0 6.036 2.5a3.315 3.315 0 0 0-1.874-.946z" class="cls-3" transform="translate(.247 .062)"/>
            <path id="Path_4876" d="M10.924 2.743a2.184 2.184 0 0 1 .17-.818.85.85 0 0 1 .082-.157.559.559 0 0 1-.038.141 1.848 1.848 0 0 0-.034.838c.063.427.1.489.552.949.213.217.461.49.551.606l.164.213-.164-.153a7.06 7.06 0 0 0-.76-.6c-.068-.034-.079-.034-.12.007s-.047.1-.052.367a2.046 2.046 0 0 1-.207.967c-.075.147-.088.116-.019-.051a1.322 1.322 0 0 0 .056-.588c0-.823-.1-1.022-.676-1.36a5.936 5.936 0 0 0-.535-.275 2.066 2.066 0 0 1-.262-.129 5.758 5.758 0 0 1 .806.234c.337.13.392.145.433.131s.041-.088.053-.322z" class="cls-3" transform="translate(.597 .079)"/>
            <path id="Path_4877" d="M4.553 4.144a3.337 3.337 0 0 1-.6-2.041l.016-.2.092.016a2.322 2.322 0 0 1 .613.227c.383.232.55.536.719 1.32.05.229.115.49.144.578a3.893 3.893 0 0 0 .378.686c.106.155.036.228-.2.207a1.916 1.916 0 0 1-1.162-.793z" class="cls-3" transform="translate(.244 .087)"/>
            <path id="Path_4878" d="M10.535 8.066c-1.894-.758-2.561-1.417-2.561-2.527a1.7 1.7 0 0 1 .013-.3 1.554 1.554 0 0 1 .162.12 3.85 3.85 0 0 0 2.006.61 8.33 8.33 0 0 1 1.458.3 2.774 2.774 0 0 1 2.043 2.208 3.6 3.6 0 0 1-.056 1.189 2.252 2.252 0 0 1-.308.686c-.014.005-.029-.049-.032-.123a1.524 1.524 0 0 0-.56-1.069 7.651 7.651 0 0 0-2.165-1.094z" class="cls-3" transform="translate(.494 .294)"/>
            <path id="Path_4879" d="M9.37 8.229a3.475 3.475 0 0 0-.091-.4l-.049-.142.09.1a1.6 1.6 0 0 1 .306.552 1.212 1.212 0 0 1 .07.527 1.17 1.17 0 0 1-.068.511 1.617 1.617 0 0 1-.4.632 2.285 2.285 0 0 1-1.434.624c-.112.014-.436.037-.722.052a5.657 5.657 0 0 0-1.622.263.349.349 0 0 1-.122.029 2.272 2.272 0 0 1 .513-.3A4.921 4.921 0 0 1 7.27 10.3c.373-.062.757-.137.855-.167A1.626 1.626 0 0 0 9.37 8.229z" class="cls-3" transform="translate(.33 .445)"/>
            <path id="Path_4880" d="M9.966 9.736A2.168 2.168 0 0 1 9.794 8.2c.015-.052.038-.095.053-.095a.515.515 0 0 1 .132.071c.116.078.348.208.969.544a4.782 4.782 0 0 1 1.514 1.115 2.42 2.42 0 0 1 .5 1.145 3.871 3.871 0 0 1-.048 1.128 2.8 2.8 0 0 1-1.381 1.82 1.649 1.649 0 0 1-.2.1.771.771 0 0 1 .082-.206 1.842 1.842 0 0 0 .083-1.472 6.252 6.252 0 0 0-.768-1.369 9.192 9.192 0 0 1-.764-1.245z" class="cls-3" transform="translate(.602 .471)"/>
            <path id="Path_4881" d="M3.262 12.442A5.142 5.142 0 0 1 5.638 11.3a3.734 3.734 0 0 1 1.233.048 2.119 2.119 0 0 1 1.2.766 2.751 2.751 0 0 1 .434 1.289c.041.258.086.518.1.577a1.276 1.276 0 0 0 .416.748 1.447 1.447 0 0 0 1.316.035.656.656 0 0 1 .165-.051 1.51 1.51 0 0 1-.415.276 1.423 1.423 0 0 1-.687.166 1.379 1.379 0 0 1-1.166-.709 5.855 5.855 0 0 1-.314-.624c-.338-.766-.5-1-.9-1.254a1.163 1.163 0 0 0-1.114-.1.715.715 0 0 0-.244 1.115.969.969 0 0 0 .544.282.58.58 0 0 0 .657-.578.452.452 0 0 0-.313-.463c-.307-.137-.635.023-.634.309a.257.257 0 0 0 .177.254c.079.036.081.038.016.025a.349.349 0 0 1-.121-.618.692.692 0 0 1 1.025.217.941.941 0 0 1 .02.645.9.9 0 0 1-1.085.513 1.511 1.511 0 0 1-.83-.56 2.566 2.566 0 0 0-1.884-.963l-.185-.029z" class="cls-3" transform="translate(.189 .668)"/>
            <path id="Path_4882" d="M.327.908a35.922 35.922 0 0 0 3.926 4.023c.14.193.087.367-.153.5a1.474 1.474 0 0 1-.547.152.289.289 0 0 1-.21-.059c-.09-.085-.141-.07-.605-.889-.644-.994-1.183-1.818-1.2-1.832-.034-.032-.033-.031 1.133 2.042a.736.736 0 0 1 .039.655c0 .125-.035.191-.19.364a2.092 2.092 0 0 0-.459 1.278A3.994 3.994 0 0 1 .974 9.325a4.339 4.339 0 0 0-.605.841 1.537 1.537 0 0 0-.188.758 2.348 2.348 0 0 0 .125.935 3.308 3.308 0 0 0 .456.9 2.1 2.1 0 0 1 .35.7c0 .08.015.08.36 0a3.743 3.743 0 0 0 1.872-.91.858.858 0 0 0 .29-.722.7.7 0 0 0-.067-.4 1.741 1.741 0 0 0-.67-.648 1.505 1.505 0 0 1-.8-1.019 1.765 1.765 0 0 1 .293-1.137 3.431 3.431 0 0 0 .418-1.5c.032-.4.075-.559.191-.686a.725.725 0 0 1 .529-.217 1.8 1.8 0 0 0 1.057-.42.907.907 0 0 0 .328-.691l.011-.223L4.8 4.74C4.352 4.221.028.5 0 .5-.005.5.141.684.327.908zm1.037 10.423a.394.394 0 0 0-.122-.519c-.16-.105-.409-.055-.409.083 0 .041.023.072.076.1.089.046.1.1.025.2s-.065.2.016.262a.279.279 0 0 0 .414-.126z" class="cls-4"/>
            <path id="Path_4883" d="M4.957 6a.854.854 0 0 0-.519.563.8.8 0 0 0 .045.508c.1.135.2.171.466.169.52 0 .973-.225 1.026-.5a.74.74 0 0 0-.43-.681A1.025 1.025 0 0 0 4.957 6zm.61.473a.209.209 0 0 0-.092-.319c-.259-.158-.653-.028-.653.217 0 .122.2.255.393.255a.511.511 0 0 0 .351-.153z" class="cls-4" transform="translate(.274 .34)"/>
        </g>
    </g>
</svg>
